<svg width="256" height="203" viewBox="0 0 256 203" fill="none" xmlns="http://www.w3.org/2000/svg">
<g clip-path="url(#clip0)">
<path opacity="0.1" d="M220.972 116.453C212.878 130.96 214.309 150.666 217.777 166.204C218.938 171.406 220.279 176.893 219.246 182.722C217.983 189.85 213.459 195.469 208.89 198.684C200.558 204.55 191.073 204.431 184.204 198.375C178.258 193.141 174.365 183.984 168.3 179.034C158.138 170.748 144.143 175.865 131.969 183.716C123.355 189.267 113.874 196.294 105.953 192.379C100.38 189.624 96.9335 181.794 95.336 173.261C94.5669 169.143 94.1112 164.643 92.3238 161.508C91.2604 159.646 89.7935 158.402 88.2719 157.385C74.3836 148.106 55.5153 156.006 42.1302 145.489C33.0889 138.385 27.9879 123.653 26.3572 107.881C24.7265 92.1091 26.1697 75.2132 27.9689 58.5775C29.2554 46.7569 30.9835 34.0987 36.5948 24.4606C42.529 14.2659 51.8433 9.68228 59.9185 10.5954C67.9937 11.5084 74.9865 17.1872 81.0061 24.1224C88.5307 32.7902 95.3004 43.8746 105.07 46.6346C111.717 48.5154 119.009 46.2679 126.089 44.9828C137.927 42.8341 149.589 43.3803 161.163 44.1113C172.245 44.8111 183.397 45.7008 193.71 49.9982C201.009 53.0392 206.595 59.4151 213.4 63.5461C217.836 66.2385 222.852 66.5585 226.982 70.1588C232.069 74.5811 236.453 82.8014 234.369 93.2095C232.387 103.108 225.266 108.755 220.972 116.453Z" fill="#AA236D"/>
<path d="M69.857 72.1358C69.857 72.1358 34.9309 63.5773 79.3707 13.5037C79.3707 13.5037 98.5262 33.4015 91.5001 58.1353C88.6755 68.0803 79.5843 74.2195 70.3745 72.2529L69.857 72.1358Z" fill="#AA236D"/>
<path opacity="0.4" d="M69.857 72.1358C69.0903 71.9485 35.6762 62.7319 79.3707 13.5037C79.3707 13.5037 98.5262 33.4015 91.5001 58.1353C88.6755 68.0803 79.5843 74.2195 70.3745 72.2529L69.857 72.1358Z" fill="white"/>
<path d="M70.3199 72.422C70.3199 72.422 88.768 41.9652 79.3754 13.5063" stroke="#535461" stroke-miterlimit="10"/>
<path d="M213.537 101.711C213.537 101.711 207.518 75.1482 216.64 56.2363C220.471 48.2995 221.993 39.2572 220.713 30.3891C220.099 26.1825 219.134 22.0464 217.831 18.0326" stroke="#535461" stroke-width="2" stroke-miterlimit="10"/>
<path d="M223.516 6.07679C223.391 9.29208 217.715 18.363 217.715 18.363C217.715 18.363 212.768 8.79261 212.894 5.57733C212.981 4.05493 213.61 2.63074 214.645 1.61056C215.68 0.590373 217.038 0.0555558 218.429 0.120943C219.819 0.18633 221.131 0.846707 222.082 1.96027C223.034 3.07384 223.548 4.5518 223.516 6.07679Z" fill="#AA236D"/>
<path d="M231.601 24.2941C229.902 26.9189 220.637 31.1539 220.637 31.1539C220.637 31.1539 221.231 20.1736 222.93 17.5488C223.327 16.9064 223.837 16.3574 224.431 15.934C225.024 15.5106 225.689 15.2214 226.386 15.0833C227.082 14.9452 227.797 14.961 228.488 15.1297C229.179 15.2985 229.833 15.6168 230.41 16.0661C230.987 16.5153 231.477 17.0864 231.85 17.7458C232.223 18.4052 232.473 19.1397 232.584 19.9061C232.694 20.6725 232.664 21.4555 232.495 22.209C232.326 22.9625 232.021 23.6714 231.599 24.2941H231.601Z" fill="#AA236D"/>
<path d="M230.027 54.7041C227.352 56.0282 217.404 54.561 217.404 54.561C217.404 54.561 222.975 45.412 225.65 44.0853C226.93 43.4837 228.374 43.4564 229.672 44.0092C230.97 44.562 232.018 45.6509 232.592 47.0417C233.165 48.4325 233.218 50.0143 232.738 51.4471C232.259 52.8799 231.285 54.0493 230.027 54.7041Z" fill="#AA236D"/>
<path d="M224.11 77.4192C221.677 79.2193 211.646 79.6147 211.646 79.6147C211.646 79.6147 215.726 69.5657 218.159 67.7629C219.328 66.9308 220.748 66.6349 222.114 66.9388C223.479 67.2427 224.682 68.1222 225.462 69.388C226.242 70.6537 226.537 72.2046 226.284 73.7066C226.032 75.2086 225.251 76.5418 224.11 77.4192Z" fill="#AA236D"/>
<path d="M209.462 31.2632C211.477 33.6044 221.19 36.3827 221.19 36.3827C221.19 36.3827 219.206 25.6 217.191 23.2614C216.215 22.1717 214.889 21.5449 213.496 21.5159C212.103 21.4869 210.756 22.0579 209.743 23.1061C208.731 24.1544 208.134 25.5962 208.082 27.1216C208.029 28.647 208.525 30.1341 209.462 31.2632Z" fill="#AA236D"/>
<path d="M202.849 57.9142C205.412 59.475 215.429 58.9547 215.429 58.9547C215.429 58.9547 210.604 49.314 208.038 47.7454C206.81 47.0349 205.378 46.8787 204.047 47.31C202.716 47.7414 201.591 48.7261 200.914 50.0538C200.236 51.3816 200.059 52.947 200.421 54.4158C200.783 55.8845 201.654 57.1401 202.849 57.9142Z" fill="#AA236D"/>
<path d="M199.666 84.7941C201.949 86.8153 211.912 88.1498 211.912 88.1498C211.912 88.1498 208.631 77.7443 206.348 75.7309C205.248 74.796 203.857 74.371 202.475 74.5471C201.092 74.7233 199.828 75.4866 198.953 76.6731C198.078 77.8596 197.663 79.3747 197.796 80.893C197.93 82.4114 198.601 83.812 199.666 84.7941Z" fill="#AA236D"/>
<path d="M223.516 6.07679C223.391 9.29208 217.715 18.363 217.715 18.363C217.715 18.363 212.768 8.79261 212.894 5.57733C212.981 4.05493 213.61 2.63074 214.645 1.61056C215.68 0.590373 217.038 0.0555558 218.429 0.120943C219.819 0.18633 221.131 0.846707 222.082 1.96027C223.034 3.07384 223.548 4.5518 223.516 6.07679Z" fill="#AA236D"/>
<path d="M231.601 24.2941C229.902 26.9189 220.637 31.1539 220.637 31.1539C220.637 31.1539 221.231 20.1736 222.93 17.5488C223.327 16.9064 223.837 16.3574 224.431 15.934C225.024 15.5106 225.689 15.2214 226.386 15.0833C227.082 14.9452 227.797 14.961 228.488 15.1297C229.179 15.2985 229.833 15.6168 230.41 16.0661C230.987 16.5153 231.477 17.0864 231.85 17.7458C232.223 18.4052 232.473 19.1397 232.584 19.9061C232.694 20.6725 232.664 21.4555 232.495 22.209C232.326 22.9625 232.021 23.6714 231.599 24.2941H231.601Z" fill="#AA236D"/>
<path d="M230.027 54.7041C227.352 56.0282 217.404 54.561 217.404 54.561C217.404 54.561 222.975 45.412 225.65 44.0853C226.93 43.4837 228.374 43.4564 229.672 44.0092C230.97 44.562 232.018 45.6509 232.592 47.0417C233.165 48.4325 233.218 50.0143 232.738 51.4471C232.259 52.8799 231.285 54.0493 230.027 54.7041Z" fill="#AA236D"/>
<path d="M224.11 77.4192C221.677 79.2193 211.646 79.6147 211.646 79.6147C211.646 79.6147 215.726 69.5657 218.159 67.7629C219.328 66.9308 220.748 66.6349 222.114 66.9388C223.479 67.2427 224.682 68.1222 225.462 69.388C226.242 70.6537 226.537 72.2046 226.284 73.7066C226.032 75.2086 225.251 76.5418 224.11 77.4192Z" fill="#AA236D"/>
<path d="M209.462 31.2632C211.477 33.6044 221.19 36.3827 221.19 36.3827C221.19 36.3827 219.206 25.6 217.191 23.2614C216.215 22.1717 214.889 21.5449 213.496 21.5159C212.103 21.4869 210.756 22.0579 209.743 23.1061C208.731 24.1544 208.134 25.5962 208.082 27.1216C208.029 28.647 208.525 30.1341 209.462 31.2632Z" fill="#AA236D"/>
<path d="M202.849 57.9142C205.412 59.475 215.429 58.9547 215.429 58.9547C215.429 58.9547 210.604 49.314 208.038 47.7454C206.81 47.0349 205.378 46.8787 204.047 47.31C202.716 47.7414 201.591 48.7261 200.914 50.0538C200.236 51.3816 200.059 52.947 200.421 54.4158C200.783 55.8845 201.654 57.1401 202.849 57.9142Z" fill="#AA236D"/>
<path d="M199.666 84.7941C201.949 86.8153 211.912 88.1498 211.912 88.1498C211.912 88.1498 208.631 77.7443 206.348 75.7309C205.248 74.796 203.857 74.371 202.475 74.5471C201.092 74.7233 199.828 75.4866 198.953 76.6731C198.078 77.8596 197.663 79.3747 197.796 80.893C197.93 82.4114 198.601 83.812 199.666 84.7941Z" fill="#AA236D"/>
<path d="M191.5 84.5547C191.5 84.5547 216.747 61.3688 222.358 49.6756C227.969 37.9825 235.121 27.91 235.121 27.91" stroke="#535461" stroke-width="2" stroke-miterlimit="10"/>
<path d="M231.81 54.0433L220.891 51.3431C220.891 51.3431 223.464 63.9701 231.81 54.0433Z" fill="#AA236D"/>
<path d="M215.114 41.1484L221.399 51.4654C221.399 51.4654 209.118 52.4435 215.114 41.1484Z" fill="#AA236D"/>
<path d="M236.106 44.3454L226.123 42.4256C226.123 42.4256 232.396 52.8805 236.106 44.3454Z" fill="#AA236D"/>
<path d="M221.342 35.1288L226.27 42.1889C226.27 42.1889 217.547 43.089 221.342 35.1288Z" fill="#AA236D"/>
<path d="M231.288 33.7215C231.288 33.7215 239.797 34.1663 240.782 35.056C241.767 35.9456 239.515 41.164 236.272 40.3133C233.03 39.4627 231.288 33.7215 231.288 33.7215Z" fill="#AA236D"/>
<path d="M227.889 25.3945C227.889 25.3945 231.361 32.3297 231.231 33.6486C231.1 34.9675 225.94 36.4503 224.895 31.4505C223.851 26.4507 227.889 25.3945 227.889 25.3945Z" fill="#AA236D"/>
<path d="M239.276 29.8914C239.672 28.5217 238.979 27.0598 237.73 26.6261C236.48 26.1924 235.146 26.9511 234.75 28.3208C234.354 29.6905 235.047 31.1524 236.297 31.5861C237.546 32.0198 238.88 31.261 239.276 29.8914Z" fill="#FFD037"/>
<path d="M235.562 27.2382C235.957 25.8685 235.265 24.4066 234.015 23.9729C232.765 23.5392 231.431 24.298 231.036 25.6676C230.64 27.0373 231.332 28.4992 232.582 28.9329C233.832 29.3666 235.166 28.6079 235.562 27.2382Z" fill="#FFD037"/>
<path d="M78.0604 90.5066C78.0604 90.5066 88.2672 82.1823 75.4494 53.047C75.4494 53.047 58.359 29.8949 75.4494 8.04342C75.4494 8.04342 38.1828 9.08397 38.8949 47.0639C39.607 85.0438 57.5282 90.5066 57.5282 90.5066H78.0604Z" fill="#AA236D"/>
<path d="M68.5278 90.5066C68.5278 90.5066 65.9571 70.4761 59.0734 58.2497C57.7139 55.7769 56.7362 53.075 56.1799 50.2531C53.8799 39.1635 57.1603 27.5666 64.5922 19.6299L75.4517 8.0356" stroke="#535461" stroke-width="2" stroke-miterlimit="10"/>
<path d="M99.3166 23.6386C99.3166 23.6386 101.662 26.9995 98.2342 32.0722C94.8066 37.1449 91.982 41.4371 93.1237 44.59C93.1237 44.59 98.2936 35.1678 102.502 35.0352C106.711 34.9025 103.945 29.3044 99.3166 23.6386Z" fill="#AA236D"/>
<path opacity="0.1" d="M99.3166 23.6386C99.5195 23.9634 99.6794 24.3181 99.7914 24.6921C103.898 29.9781 106.084 34.9129 102.139 35.0378C98.4621 35.1522 94.0518 42.358 92.9955 44.1764C93.0304 44.3167 93.0724 44.4548 93.1213 44.59C93.1213 44.59 98.2912 35.1678 102.5 35.0352C106.708 34.9025 103.945 29.3044 99.3166 23.6386Z" fill="#2A2121"/>
<path d="M103.675 27.9204C103.675 29.1041 103.554 30.0614 103.404 30.0614C103.255 30.0614 103.133 29.1015 103.133 27.9204C103.133 26.7394 103.285 27.2935 103.435 27.2935C103.584 27.2935 103.675 26.7394 103.675 27.9204Z" fill="#FFD037"/>
<path d="M105.17 29.333C104.221 29.9001 103.397 30.2409 103.326 30.0978C103.255 29.9547 103.964 29.3798 104.911 28.8127C105.858 28.2456 105.486 28.6592 105.557 28.8127C105.628 28.9662 106.117 28.7659 105.17 29.333Z" fill="#FFD037"/>
<path d="M86.9356 23.6386C86.9356 23.6386 84.5904 26.9995 88.0179 32.0722C91.4455 37.1449 94.2702 41.4371 93.1285 44.59C93.1285 44.59 87.9586 35.1678 83.7501 35.0352C79.5416 34.9025 82.3022 29.3044 86.9356 23.6386Z" fill="#AA236D"/>
<path opacity="0.1" d="M86.9356 23.6386C86.7327 23.9634 86.5728 24.3181 86.4608 24.6921C82.3544 29.9781 80.1682 34.9129 84.1133 35.0378C87.7901 35.1522 92.2004 42.358 93.2567 44.1764C93.2218 44.3167 93.1798 44.4548 93.1308 44.59C93.1308 44.59 87.9539 35.1652 83.7454 35.0378C79.5369 34.9103 82.3022 29.3044 86.9356 23.6386Z" fill="#2A2121"/>
<path d="M82.5728 27.9204C82.5728 29.1041 82.6938 30.0614 82.8434 30.0614C82.9929 30.0614 83.114 29.1015 83.114 27.9204C83.114 26.7394 82.962 27.2935 82.8125 27.2935C82.663 27.2935 82.5728 26.7394 82.5728 27.9204Z" fill="#FFD037"/>
<path d="M81.0773 29.333C82.0268 29.9001 82.8505 30.2409 82.9217 30.0978C82.9929 29.9547 82.2832 29.3798 81.3361 28.8127C80.389 28.2456 80.7617 28.6592 80.6904 28.8127C80.6192 28.9662 80.1303 28.7659 81.0773 29.333Z" fill="#FFD037"/>
<path d="M256 167.993L235.204 67.7161H227.478C227.169 63.8843 226.963 60.1721 226.885 56.6759C226.885 56.6759 198.875 63.3926 176.539 43.9604C154.203 24.5283 127.943 45.6409 127.943 45.6409L127.841 45.5603V45.5213V45.5707C126.018 44.1555 100.862 25.2618 79.3541 43.976C57.0274 63.4082 29.0086 56.6915 29.0086 56.6915C28.9303 60.232 28.7214 63.9753 28.4057 67.8436H21.2372L0 168.355C0 168.355 86.3303 171.898 116.583 168.631C117.667 171.144 122.344 173.032 127.945 173.032C134.24 173.032 139.36 170.647 139.538 167.673C163.088 169.637 213.761 172.777 256 167.993Z" fill="url(#paint0_linear)"/>
<path d="M23.4613 68.598L2.67038 167.018C2.67038 167.018 117.121 171.716 126.338 165.14C126.338 165.14 197.389 173.009 253.33 166.667L232.968 68.4835L23.4613 68.598Z" fill="#E2E2EC"/>
<path opacity="0.1" d="M30.5349 71.9979L11.1515 163.756C11.1515 163.756 117.857 168.137 126.45 162.005C126.45 162.005 192.692 169.341 244.846 163.428L225.857 71.8887L30.5349 71.9979Z" fill="#2A2121"/>
<path d="M224.824 57.6774C224.824 57.6774 197.389 64.2537 175.528 45.2273C153.666 26.2009 127.945 46.8714 127.945 46.8714C127.945 46.8714 102.227 26.2009 80.3652 45.2273C58.5038 64.2537 31.0689 57.6774 31.0689 57.6774C30.2049 95.9643 13.9239 157.976 13.9239 157.976C13.9239 157.976 43.9294 166.901 83.5816 148.816C123.234 130.732 127.948 155.158 127.948 155.158C127.948 155.158 132.662 130.729 172.314 148.816C211.966 166.904 241.972 157.976 241.972 157.976C241.972 157.976 225.681 95.9643 224.824 57.6774Z" fill="#F1F2FB"/>
<path opacity="0.1" d="M75.0079 155.869C75.0079 155.869 111.23 146.943 127.941 160.096C127.941 160.096 144.015 144.123 181.308 156.573" fill="#2A2121"/>
<path d="M127.945 171.599C134.22 171.599 139.306 169.18 139.306 166.196C139.306 163.212 134.22 160.793 127.945 160.793C121.671 160.793 116.585 163.212 116.585 166.196C116.585 169.18 121.671 171.599 127.945 171.599Z" fill="#E8EAF8"/>
<path opacity="0.1" d="M127.839 46.7543C127.839 46.7543 135.983 92.0883 128.052 155.978L127.839 46.7543Z" fill="#2A2121"/>
<path opacity="0.1" d="M38.9163 71.8887C38.9163 71.8887 55.9758 76.233 70.7424 71.8887C85.509 67.5444 112.621 53.3332 121.539 71.8887" stroke="#2A2121" stroke-width="4" stroke-miterlimit="10"/>
<path opacity="0.1" d="M38.9163 79.8749C38.9163 79.8749 55.9758 84.2191 70.7424 79.8749C85.509 75.5306 117.482 75.7647 121.539 79.8749" stroke="#2A2121" stroke-width="4" stroke-miterlimit="10"/>
<path opacity="0.1" d="M38.9163 93.956C38.9163 93.956 55.9758 98.3003 70.7424 93.956C85.509 89.6118 112.621 75.4005 121.539 93.956" stroke="#2A2121" stroke-width="4" stroke-miterlimit="10"/>
<path opacity="0.1" d="M38.9163 101.953C38.9163 101.953 55.9758 106.297 70.7424 101.953C85.509 97.6083 117.482 97.8425 121.539 101.953" stroke="#2A2121" stroke-width="4" stroke-miterlimit="10"/>
<path opacity="0.1" d="M216.977 71.8887C216.977 71.8887 199.917 76.233 185.151 71.8887C170.384 67.5444 143.272 53.3332 134.354 71.8887" stroke="#2A2121" stroke-width="4" stroke-miterlimit="10"/>
<path opacity="0.1" d="M216.977 79.8749C216.977 79.8749 199.917 84.2191 185.151 79.8749C170.384 75.5306 138.411 75.7647 134.354 79.8749" stroke="#2A2121" stroke-width="4" stroke-miterlimit="10"/>
<path opacity="0.1" d="M216.977 93.956C216.977 93.956 199.917 98.3003 185.151 93.956C170.384 89.6118 143.272 75.4005 134.354 93.956" stroke="#2A2121" stroke-width="4" stroke-miterlimit="10"/>
<path opacity="0.1" d="M216.977 101.953C216.977 101.953 199.917 106.297 185.151 101.953C170.384 97.6083 138.411 97.8425 134.354 101.953" stroke="#2A2121" stroke-width="4" stroke-miterlimit="10"/>
<path d="M217.323 186.51C218.036 185.914 218.712 185.209 218.919 184.359C219.024 183.907 218.968 183.428 218.761 183.02C218.554 182.612 218.212 182.308 217.805 182.168C216.782 181.82 215.69 182.452 214.86 183.092C214.029 183.732 213.082 184.463 211.997 184.327C213.12 183.438 213.659 181.986 213.345 180.686C213.292 180.402 213.161 180.143 212.97 179.944C212.403 179.4 211.373 179.635 210.694 180.061C208.531 181.422 207.929 184.046 207.917 186.411C207.698 185.558 207.883 184.671 207.876 183.794C207.869 182.917 207.603 181.95 206.777 181.479C206.249 181.229 205.677 181.109 205.101 181.128C204.131 181.097 203.046 181.182 202.384 181.82C201.56 182.6 201.774 183.935 202.49 184.803C203.207 185.672 204.299 186.219 205.303 186.82C206.07 187.277 206.844 187.811 207.314 188.534C207.374 188.63 207.424 188.733 207.463 188.841H213.556C214.895 188.237 216.161 187.454 217.323 186.51Z" fill="#AA236D"/>
<path d="M175.193 92.8349C175.193 92.8349 175.253 93.2094 175.352 93.8754C175.3 93.9795 175.248 94.0835 175.193 94.185C173.247 97.7748 172.948 102.946 173.131 107.192C173.301 110.616 173.849 114.005 174.761 117.285C175.875 121.548 176.434 125.962 176.423 130.396C177.193 131.309 178.119 132.047 179.148 132.571C179.2 132.745 179.255 132.922 179.302 133.091C180.199 136.367 180.806 139.731 181.113 143.135L181.726 151.631C181.726 151.631 186.418 170.86 187.845 174.437C188.861 176.981 188.638 182.241 188.424 185.061C187.814 186.957 187.071 188.765 186.416 188.963C185.229 189.332 184.042 192.464 185.77 194.038C185.9 194.156 186.039 194.261 186.186 194.35L186.255 194.392L186.38 194.462L186.565 194.553L186.66 194.592L186.857 194.665L186.943 194.694C187.035 194.722 187.13 194.751 187.232 194.777C188.436 195.037 189.684 194.82 190.755 194.166C192.056 193.952 193.212 193.188 194.078 192.415L194.054 193.77H195.479L195.412 191.062C195.669 190.748 195.811 190.542 195.811 190.542C195.811 190.542 195.854 188.906 196.017 187.002L195.913 193.112H197.337L196.953 181.835C197.025 181.667 197.12 181.511 197.235 181.375C198.422 180.074 196.371 175.878 195.31 175.178C195.785 172.421 197.596 168.438 199.685 160.803C202.744 149.617 198.868 138.668 198.868 138.668V130.084C199.896 129.6 200.501 129.27 200.501 129.27C200.501 129.27 199.077 120.102 200.501 113.62C201.425 109.429 201.664 105.706 200.893 102.145C201.918 98.2743 202.747 95.2853 202.747 95.2853L204.171 79.1881C204.534 76.7714 204.779 74.7034 204.935 72.9448C204.961 72.7263 204.98 72.5052 204.99 72.2867C205.251 69.0116 205.194 66.8238 205.023 65.3931C205.106 64.7374 205.135 64.0748 205.109 63.4134C205.142 63.0739 205.154 62.7324 205.147 62.3911C205.351 62.131 205.55 61.8708 205.74 61.6107C206.245 60.9228 206.675 60.1719 207.019 59.3735C208.588 56.1296 208.633 52.1677 206.443 49.3088C205.094 47.5477 204.674 45.6513 203.509 43.7757C202.443 42.0589 202.241 40.0012 201.985 38.0241C201.667 35.5666 201.232 33.1292 200.679 30.7221C200.516 30.0145 199.618 29.5801 199.172 28.9922C198.31 27.8554 195.794 27.8944 194.344 27.6421C191.909 27.2181 189.271 26.8227 187.054 27.871C185.512 28.602 184.403 29.9313 183.197 31.1045C181.899 32.3662 179.24 32.9749 178.827 34.4863C178.459 35.0638 178.44 35.787 179.065 36.7547C179.668 37.686 180.617 38.3519 181.502 39.0491C181.616 39.1375 181.723 39.2312 181.835 39.3092C181.535 41.3167 181.83 43.3768 182.679 45.1863C183.527 46.9958 184.883 48.4591 186.547 49.3609C186.523 49.53 186.497 49.6965 186.468 49.8603C186.208 51.319 185.849 52.7545 185.395 54.1552C185.132 55.0188 182.084 56.5276 179.936 57.4953C179.687 57.2158 179.391 56.9922 179.065 56.8372C177.432 56.3898 171.925 59.7429 171.516 60.8615C171.403 61.1737 171.702 62.0373 172.188 63.1247C172.22 63.6202 172.294 64.1113 172.409 64.5919C172.288 66.8811 172.506 70.575 173.558 76.5139L175.193 92.8349ZM198.099 95.3504C198.023 95.1917 197.945 95.0304 197.862 94.8639C195.595 89.8407 194.249 81.7192 197.496 76.8755C197.786 76.9093 198.075 76.9405 198.365 76.9613C198.557 83.5532 198.446 94.3905 198.446 94.3905C198.446 94.3905 198.318 94.7547 198.099 95.3504ZM190.007 133.637C190.468 136.174 191.009 139.121 191.515 141.8C192.116 144.92 192.075 148.148 191.396 151.248L189.478 144.943L189.032 133.848L189.003 133.393C189.312 133.335 189.618 133.274 189.922 133.208L190.007 133.637Z" fill="url(#paint1_linear)"/>
<path d="M191.488 141.316C192.08 144.387 192.041 147.564 191.372 150.616C191.253 151.196 191.094 151.766 190.897 152.32L191.439 176.435L191.5 179.169C192.002 179.284 192.509 179.366 193.019 179.413C193.493 179.467 193.97 179.467 194.444 179.413C194.918 179.348 195.336 179.192 195.559 178.893C195.782 178.594 195.83 178.113 195.514 177.413C195.167 176.644 195.033 175.78 195.127 174.929C195.146 174.689 195.182 174.437 195.225 174.177C195.699 171.464 197.473 167.541 199.53 160.028C202.543 149.024 198.728 138.242 198.728 138.242V128.112L188.889 127.012C188.889 127.012 189.364 129.738 190.017 133.281C190.458 135.778 190.99 138.679 191.488 141.316Z" fill="#FDC2CC"/>
<path opacity="0.1" d="M191.488 141.316C192.08 144.387 192.041 147.564 191.372 150.616C191.253 151.196 191.094 151.766 190.897 152.32L191.439 176.435L191.5 179.169C192.002 179.284 192.509 179.366 193.019 179.413C193.493 179.467 193.97 179.467 194.444 179.413C194.918 179.348 195.336 179.192 195.559 178.893C195.782 178.594 195.83 178.113 195.514 177.413C195.167 176.644 195.033 175.78 195.127 174.929C195.146 174.689 195.182 174.437 195.225 174.177C195.699 171.464 197.473 167.541 199.53 160.028C202.543 149.024 198.728 138.242 198.728 138.242V128.112L188.889 127.012C188.889 127.012 189.364 129.738 190.017 133.281C190.458 135.778 190.99 138.679 191.488 141.316Z" fill="#2A2121"/>
<path d="M177.833 128.112C178.482 129.611 179.027 131.161 179.463 132.75C180.346 135.975 180.943 139.285 181.246 142.635L181.849 150.999C181.849 150.999 186.468 169.924 187.873 173.446C188.873 175.951 188.654 181.128 188.443 183.909C188.358 185.038 188.275 185.771 188.275 185.771L190.323 183.022L193.008 179.413L194.232 177.767L194.501 177.408C194.177 176.67 193.914 175.901 193.717 175.111C193.096 172.701 192.687 170.231 192.495 167.736C191.892 160.915 191.693 151.67 191.693 151.67L191.375 150.629L189.476 144.409L189.036 133.484L188.873 129.439L177.833 128.112Z" fill="#FDC2CC"/>
<path d="M193.366 175.584C192.283 177.131 191.473 178.886 190.978 180.758C190.34 183.139 189.217 186.796 188.275 187.09C186.869 187.53 185.464 191.931 189.077 192.813C192.69 193.695 195.704 189.291 195.704 189.291C195.704 189.291 195.906 181.588 197.109 180.269C198.313 178.95 196.105 174.546 195.101 174.107C194.7 173.927 194.021 174.656 193.366 175.584Z" fill="#5F5D7E"/>
<path opacity="0.1" d="M187.873 192.152C188.818 192.369 189.8 192.271 190.693 191.871C191.793 191.389 192.747 190.576 193.445 189.527C194.143 188.477 194.556 187.233 194.638 185.938C194.809 183.581 195.17 180.412 195.904 179.609C196.853 178.568 195.666 175.602 194.645 174.185C194.711 174.136 194.786 174.104 194.864 174.091C194.943 174.077 195.023 174.083 195.099 174.107C196.103 174.546 198.313 178.948 197.107 180.269C195.901 181.591 195.702 189.291 195.702 189.291C195.702 189.291 192.694 193.692 189.079 192.808C188.553 192.696 188.06 192.448 187.641 192.082C187.717 192.108 187.793 192.131 187.873 192.152Z" fill="#2A2121"/>
<path d="M196.824 180.454L197.211 191.822H195.806L196.001 180.462C196.006 180.347 196.053 180.24 196.13 180.162C196.207 180.085 196.309 180.044 196.414 180.048C196.517 180.045 196.617 180.085 196.694 180.16C196.77 180.236 196.817 180.341 196.824 180.454Z" fill="#5F5D7E"/>
<path opacity="0.15" d="M196.824 180.454L197.211 191.822H195.806L196.001 180.462C196.006 180.347 196.053 180.24 196.13 180.162C196.207 180.085 196.309 180.044 196.414 180.048C196.517 180.045 196.617 180.085 196.694 180.16C196.77 180.236 196.817 180.341 196.824 180.454Z" fill="#2A2121"/>
<path d="M191.56 176.245C190.477 177.792 189.667 179.546 189.172 181.419C188.533 183.799 187.411 187.457 186.468 187.751C185.063 188.19 183.658 192.592 187.27 193.474C190.883 194.356 193.898 189.946 193.898 189.946C193.898 189.946 194.1 182.244 195.303 180.925C196.506 179.606 194.299 175.202 193.295 174.762C192.889 174.598 192.215 175.316 191.56 176.245Z" fill="#5F5D7E"/>
<path opacity="0.1" d="M186.067 192.808C187.012 193.025 187.994 192.927 188.887 192.527C189.987 192.044 190.941 191.232 191.638 190.182C192.336 189.133 192.75 187.889 192.832 186.593C193.003 184.236 193.364 181.068 194.097 180.264C195.047 179.224 193.86 176.258 192.839 174.84C192.905 174.792 192.98 174.76 193.058 174.746C193.136 174.733 193.216 174.738 193.292 174.762C194.297 175.202 196.506 179.603 195.301 180.925C194.095 182.246 193.898 189.946 193.898 189.946C193.898 189.946 190.886 194.348 187.27 193.469C186.745 193.357 186.251 193.108 185.832 192.743C185.917 192.769 185.986 192.792 186.067 192.808Z" fill="#2A2121"/>
<path d="M195.016 181.102L195.403 192.47H193.988L194.183 181.11C194.188 180.995 194.235 180.887 194.312 180.81C194.389 180.733 194.491 180.692 194.596 180.696C194.7 180.689 194.803 180.728 194.882 180.804C194.96 180.88 195.008 180.987 195.016 181.102Z" fill="#5F5D7E"/>
<path opacity="0.15" d="M195.016 181.102L195.403 192.47H193.988L194.183 181.11C194.188 180.995 194.235 180.887 194.312 180.81C194.389 180.733 194.491 180.692 194.596 180.696C194.7 180.689 194.803 180.728 194.882 180.804C194.96 180.88 195.008 180.987 195.016 181.102Z" fill="#2A2121"/>
<path d="M178.035 59.233L186.067 73.0983L195.505 74.4198C195.505 74.4198 201.327 61.876 201.128 61.2153C200.929 60.5545 197.914 59.2356 195.104 56.8138C192.293 54.3919 195.706 44.27 195.706 44.27L186.471 45.1493C186.506 45.2845 186.542 45.4094 186.568 45.5603C186.936 47.2694 186.805 49.1658 186.523 50.8332C186.265 52.2664 185.911 53.6767 185.464 55.0527C185.063 56.3715 178.035 59.233 178.035 59.233Z" fill="#FDC2CC"/>
<path opacity="0.1" d="M188.877 127.012C188.877 127.012 189.352 129.738 190.005 133.281C192.995 132.584 195.914 131.563 198.719 130.232V128.112L188.877 127.012Z" fill="#2A2121"/>
<path opacity="0.1" d="M177.833 128.112C178.482 129.611 179.027 131.161 179.463 132.75C182.257 134.132 185.732 134.092 189.039 133.476L188.875 129.431L177.833 128.112Z" fill="#2A2121"/>
<path d="M175.423 94.4425C173.508 97.9778 173.214 103.063 173.394 107.257C173.562 110.626 174.101 113.961 174.999 117.189C176.095 121.385 176.647 125.729 176.636 130.094C183.463 138.236 200.33 128.994 200.33 128.994C200.33 128.994 198.925 119.972 200.33 113.589C201.308 109.151 201.517 105.241 200.525 101.495C200.068 99.783 199.395 98.1499 198.524 96.6433C198.258 96.1802 197.999 95.6677 197.75 95.1189C195.424 89.963 194.081 81.4929 197.821 76.8209C198.21 76.3346 198.648 75.8982 199.127 75.5202C202.388 72.9318 203.874 70.0573 204.501 67.625C204.893 66.1138 204.974 64.5261 204.738 62.9764C204.337 60.5545 198.714 58.3538 198.714 58.3538C198.916 65.6168 190.482 71.7768 190.482 71.7768C190.482 71.7768 180.843 58.1327 179.238 57.693C177.633 57.2534 172.21 60.5545 171.808 61.6549C171.407 62.7553 176.226 70.8976 176.226 70.8976C176.226 70.8976 179.24 87.4006 175.423 94.4425Z" fill="#D39999"/>
<path opacity="0.1" d="M199.12 75.5176C202.381 72.9292 203.867 70.0547 204.494 67.6224C204.337 63.9805 203.544 63.416 203.544 63.416C203.544 63.416 196.91 70.4553 197.513 72.885C197.651 73.4443 197.75 74.9063 197.814 76.8287C198.203 76.3387 198.641 75.8989 199.12 75.5176Z" fill="#2A2121"/>
<path opacity="0.1" d="M187.873 125.693C189.279 130.315 196.307 122.17 196.509 118.651C196.637 116.398 198.904 107.566 200.518 101.497C200.061 99.7856 199.388 98.1525 198.517 96.6459C198.251 96.1828 197.992 95.6703 197.743 95.1215C196.981 97.1739 193.921 105.587 194.099 108.089C194.301 110.951 192.894 115.131 192.894 115.131C192.894 115.131 186.468 121.07 187.873 125.693Z" fill="#2A2121"/>
<path d="M203.938 63.4134C203.938 63.4134 206.148 64.9534 203.938 79.698L202.533 95.5429C202.533 95.5429 197.112 115.129 196.91 118.651C196.708 122.173 189.682 130.313 188.275 125.693C186.867 121.073 193.295 115.129 193.295 115.129C193.295 115.129 194.7 110.948 194.501 108.087C194.301 105.225 198.315 94.6636 198.315 94.6636C198.315 94.6636 198.517 75.2991 197.914 72.8772C197.311 70.4553 203.938 63.4134 203.938 63.4134Z" fill="#FDC2CC"/>
<path opacity="0.1" d="M174.22 61.6523C174.22 61.6523 171.609 62.3131 174.22 77.0576L175.827 93.1236C175.827 93.1236 179.442 116.232 179.24 118.877C179.039 121.523 187.073 128.341 187.674 124.6C188.275 120.859 183.658 114.697 183.658 114.697C183.658 114.697 181.645 109.848 181.645 100.824L181.244 93.5606L178.436 67.3753L174.22 61.6523Z" fill="#2A2121"/>
<path d="M173.812 61.6523C173.812 61.6523 171.201 62.3131 173.812 77.0576L175.419 93.1236C175.419 93.1236 179.034 116.232 178.832 118.877C178.63 121.523 186.665 128.341 187.266 124.6C187.866 120.859 183.249 114.697 183.249 114.697C183.249 114.697 181.241 109.856 181.241 100.831L180.84 93.5684L178.035 67.3753L173.812 61.6523Z" fill="#FDC2CC"/>
<path opacity="0.1" d="M172.513 62.4223C172.513 62.4223 171.308 69.4642 179.741 71.8861C188.175 74.3079 178.737 63.5201 178.737 63.5201C178.737 63.5201 175.526 58.2419 172.513 62.4223Z" fill="#2A2121"/>
<path d="M172.713 62.2038C172.713 62.2038 171.509 69.2431 179.943 71.665C188.377 74.0868 178.939 63.3016 178.939 63.3016C178.939 63.3016 175.725 58.0208 172.713 62.2038Z" fill="#D39999"/>
<path opacity="0.1" d="M204.843 62.4223C204.843 62.4223 206.049 69.4642 197.615 71.8861C189.181 74.3079 198.617 63.5201 198.617 63.5201C198.617 63.5201 201.821 58.2419 204.843 62.4223Z" fill="#2A2121"/>
<path d="M204.641 62.2038C204.641 62.2038 205.856 69.2431 197.413 71.665C188.97 74.0868 198.417 63.3016 198.417 63.3016C198.417 63.3016 201.629 58.0208 204.641 62.2038Z" fill="#D39999"/>
<path opacity="0.1" d="M186.523 50.8306C187.631 51.1844 188.873 48.3385 190.183 48.3385C191.572 48.3385 192.879 51.3847 194.038 50.7396C194.376 48.6882 194.866 46.6706 195.505 44.707L186.568 45.5707C186.933 47.2694 186.805 49.1632 186.523 50.8306Z" fill="#2A2121"/>
<path d="M190.385 51.3093C195.098 51.3093 198.918 47.1223 198.918 41.9574C198.918 36.7925 195.098 32.6055 190.385 32.6055C185.672 32.6055 181.851 36.7925 181.851 41.9574C181.851 47.1223 185.672 51.3093 190.385 51.3093Z" fill="#FDC2CC"/>
<path opacity="0.1" d="M179.233 37.9201C179.827 38.8358 180.762 39.4809 181.633 40.1781C182.71 41.0234 183.727 41.9565 184.676 42.9693C185.346 43.6408 185.92 44.4196 186.378 45.2793C187.054 46.6633 187.145 48.2293 187.225 49.7537L188.054 65.4997C188.108 66.5403 188.163 67.6042 187.921 68.6214C187.675 69.488 187.33 70.3167 186.893 71.0875C185.799 73.2154 184.674 75.3849 182.912 77.0706C182.324 77.6299 181.607 78.3531 181.918 79.0867C182.169 79.6772 182.943 79.8671 183.608 79.9529C186.397 80.3639 189.487 80.7151 191.835 79.2245C192.72 78.6626 193.454 77.8562 194.446 77.5076C195.828 77.0264 197.351 77.5284 198.823 77.5258C200.385 77.5258 201.876 76.9561 203.333 76.3942C203.613 76.3168 203.869 76.1587 204.074 75.9364C204.19 75.7516 204.263 75.5379 204.285 75.3147C204.506 74.0374 204.715 72.7133 204.354 71.4621C203.962 70.1068 202.93 68.9335 202.813 67.534C202.661 65.5882 204.299 64.004 205.477 62.4041C207.983 58.9989 208.541 54.0954 205.968 50.737C204.641 49.0045 204.226 47.1367 203.079 45.2923C202.03 43.6041 201.831 41.5776 201.579 39.6318C201.266 37.2128 200.837 34.8135 200.292 32.4442C200.133 31.747 199.248 31.3204 198.809 30.7403C197.959 29.6217 195.486 29.6608 194.062 29.411C191.664 28.9948 189.077 28.6046 186.886 29.6373C185.367 30.3553 184.275 31.6664 183.088 32.8188C181.407 34.4629 177.33 34.9779 179.233 37.9201Z" fill="#2A2121"/>
<path d="M179.435 37.4804C180.028 38.3961 180.964 39.0413 181.835 39.7384C182.912 40.5854 183.929 41.5202 184.878 42.5349C185.548 43.2063 186.122 43.9852 186.58 44.8449C187.256 46.2288 187.346 47.7949 187.427 49.3193L188.263 65.0601C188.317 66.1006 188.372 67.1646 188.13 68.1817C187.884 69.0483 187.539 69.8771 187.102 70.6478C186.008 72.7757 184.883 74.9453 183.121 76.631C182.533 77.1903 181.816 77.9134 182.127 78.647C182.378 79.2375 183.152 79.4274 183.817 79.5133C186.606 79.9243 189.696 80.2755 192.044 78.7849C192.929 78.223 193.663 77.4166 194.655 77.068C196.036 76.5867 197.56 77.0888 199.032 77.0862C200.594 77.0862 202.085 76.5165 203.542 75.9546C203.822 75.8772 204.077 75.7191 204.283 75.4968C204.399 75.3119 204.471 75.0983 204.494 74.875C204.715 73.5978 204.923 72.2737 204.563 71.0224C204.171 69.6671 203.138 68.4939 203.022 67.0944C202.87 65.1485 204.508 63.5643 205.685 61.9645C208.192 58.5593 208.75 53.6557 206.177 50.2974C204.85 48.5649 204.434 46.6971 203.288 44.8527C202.239 43.1644 202.039 41.138 201.788 39.1921C201.475 36.7731 201.045 34.3739 200.501 32.0046C200.342 31.3074 199.457 30.8808 199.018 30.3007C198.168 29.1821 195.695 29.2211 194.27 28.9714C191.873 28.5552 189.286 28.165 187.095 29.1977C185.576 29.9157 184.484 31.2268 183.297 32.3792C181.597 34.0232 177.531 34.5383 179.435 37.4804Z" fill="#865A61"/>
</g>
<defs>
<linearGradient id="paint0_linear" x1="128" y1="173.03" x2="128" y2="35.7453" gradientUnits="userSpaceOnUse">
<stop stop-color="#808080" stop-opacity="0.25"/>
<stop offset="0.54" stop-color="#808080" stop-opacity="0.12"/>
<stop offset="1" stop-color="#808080" stop-opacity="0.1"/>
</linearGradient>
<linearGradient id="paint1_linear" x1="-33011.6" y1="135693" x2="-33011.6" y2="27599" gradientUnits="userSpaceOnUse">
<stop stop-color="#808080" stop-opacity="0.25"/>
<stop offset="0.54" stop-color="#808080" stop-opacity="0.12"/>
<stop offset="1" stop-color="#808080" stop-opacity="0.1"/>
</linearGradient>
<clipPath id="clip0">
<rect width="256" height="203" fill="white"/>
</clipPath>
</defs>
</svg>
