<svg width="251" height="215" viewBox="0 0 251 215" fill="none" xmlns="http://www.w3.org/2000/svg">
<g clip-path="url(#clip0)">
<path d="M24.1518 173.293C24.1518 173.293 29.3051 172.405 32.3971 176.329C32.3971 176.329 30.1296 178.254 25.2512 175.588L24.1518 173.293Z" fill="#BD2C72"/>
<path d="M23.6119 173.206C23.6119 173.206 20.3236 177.566 21.9433 182.421C21.9433 182.421 24.623 181.265 24.915 175.38L23.6119 173.206Z" fill="#BD2C72"/>
<path d="M20.6573 166.038C20.6573 166.038 22.7187 161.964 30.9639 167.667C30.9639 167.667 29.8646 170.406 26.2229 170.184C22.5812 169.962 21.6193 168.185 20.6573 166.038Z" fill="#BD2C72"/>
<path d="M20.1248 165.745C20.1248 165.745 15.8476 165.216 15.4329 175.766C15.4329 175.766 18.1445 176.371 20.0708 173.034C21.9972 169.698 21.207 167.826 20.1248 165.745Z" fill="#BD2C72"/>
<path d="M17.6341 157.329C17.6341 157.329 20.039 150.148 28.7652 155.256C28.7652 155.256 26.7726 161.845 18.5273 159.772L17.6341 157.329Z" fill="#BD2C72"/>
<path d="M14.9544 146.594C14.9544 146.594 19.4893 139.339 27.5285 146.065C27.5285 146.065 24.7113 152.876 15.6415 149.175L14.9544 146.594Z" fill="#BD2C72"/>
<path d="M13.9924 136.378C13.9924 136.378 19.2832 129.712 27.2438 136.378C27.2438 136.378 22.2279 142.226 13.9924 138.081V136.378Z" fill="#BD2C72"/>
<path d="M13.1679 126.455C13.1679 126.455 18.5273 119.496 26.1542 126.085C26.1542 126.085 20.1077 132.229 13.1679 128.084V126.455Z" fill="#BD2C72"/>
<path d="M13.6489 117.645C13.6489 117.645 19.293 108.687 26.429 114.758C26.429 114.758 20.3825 122.457 13.6489 119.348V117.645Z" fill="#BD2C72"/>
<path d="M14.9544 107.355C14.9544 107.355 20.9322 98.4707 27.872 105.282C27.872 105.282 20.7948 112.981 14.9544 108.983V107.355Z" fill="#BD2C72"/>
<path d="M16.947 98.1561C16.947 98.1561 24.0241 89.8063 30.1983 93.1325C30.1983 93.1325 22.8242 102 16.6378 100.372L16.947 98.1561Z" fill="#BD2C72"/>
<path d="M19.4206 89.4362C19.4206 89.4362 27.5873 79.2092 32.3382 82.6252C32.3382 82.6252 26.3211 90.5572 18.8414 91.3504L19.4206 89.4362Z" fill="#BD2C72"/>
<path d="M22.9911 79.3228C22.9911 79.3228 30.1394 70.9731 35.3614 73.046C35.3614 73.046 29.2462 81.7077 22.0316 81.9298L22.9911 79.3228Z" fill="#BD2C72"/>
<path d="M26.223 69.8626C26.223 69.8626 34.1247 61.8671 37.5602 63.2737C37.5602 63.2737 31.8572 72.1576 25.8794 71.6394L26.223 69.8626Z" fill="#BD2C72"/>
<path d="M29.3836 61.1268C29.3836 61.1268 36.186 51.574 39.8988 52.3143C39.8988 52.3143 35.7737 60.8307 29.3836 62.0971V61.1268Z" fill="#BD2C72"/>
<path d="M32.8143 49.3477C32.8143 49.3477 38.8264 42.0265 42.0755 42.0424C42.0755 42.0424 37.3295 51.8252 32.5664 51.7353L32.8143 49.3477Z" fill="#BD2C72"/>
<path d="M34.8461 41.5056L40.6546 26.255C40.6546 26.255 40.9442 40.0408 34.1075 44.3347L34.8461 41.5056Z" fill="#BD2C72"/>
<path d="M37.2044 24.6871C37.2044 24.6871 38.1663 11.9509 37.5479 10.9145C37.5479 10.9145 41.7 21.5037 37.1651 30.3135L37.2044 24.6871Z" fill="#BD2C72"/>
<path d="M17.4083 157.16C17.4083 157.16 11.3863 153.138 7.487 162.977C7.487 162.977 12.8464 166.81 18.1175 159.669L17.4083 157.16Z" fill="#BD2C72"/>
<path d="M14.7605 146.184C14.7605 146.184 7.37409 142.554 3.79132 152.826C3.79132 152.826 9.49676 157.057 15.4329 148.781L14.7605 146.184Z" fill="#BD2C72"/>
<path d="M13.6489 136.989C13.6489 136.989 8.35814 130.323 0.397522 136.989C0.397522 136.989 5.4134 142.837 13.6489 138.691V136.989Z" fill="#BD2C72"/>
<path d="M12.9863 126.455C12.9863 126.455 7.62688 119.496 0 126.085C0 126.085 6.04654 132.229 12.9863 128.084V126.455Z" fill="#BD2C72"/>
<path d="M13.6489 117.899C13.6489 117.899 9.88943 107.865 1.71777 112.18C1.71777 112.18 6.13488 121.077 13.3151 119.565L13.6489 117.899Z" fill="#BD2C72"/>
<path d="M15.428 107.304C15.428 107.304 11.6906 97.0958 3.40363 101.829C3.40363 101.829 8.4784 111.186 15.0599 108.88L15.428 107.304Z" fill="#BD2C72"/>
<path d="M17.7445 98.2063C17.7445 98.2063 16.2721 87.0142 9.40106 86.0121C9.40106 86.0121 10.8587 97.815 16.8194 100.224L17.7445 98.2063Z" fill="#BD2C72"/>
<path d="M19.5948 89.4573C19.5948 89.4573 19.0206 75.9729 13.3397 75.5023C13.3397 75.5023 13.5311 85.7372 18.9543 91.3663L19.5948 89.4573Z" fill="#BD2C72"/>
<path d="M23.58 78.9447C23.58 78.9447 21.8868 67.7315 16.4636 66.3619C16.4636 66.3619 17.1359 77.2208 23.0426 81.6971L23.58 78.9447Z" fill="#BD2C72"/>
<path d="M26.8659 69.9551C26.8659 69.9551 26.8094 58.2739 23.4966 56.558C23.4966 56.558 21.4426 67.134 25.9064 71.4463L26.8659 69.9551Z" fill="#BD2C72"/>
<path d="M29.6364 60.9946C29.6364 60.9946 29.1726 48.967 25.742 47.2722C25.742 47.2722 24.569 56.7906 29.1235 61.7825L29.6364 60.9946Z" fill="#BD2C72"/>
<path d="M33.2927 50.3075C33.2927 50.3075 33.2731 40.5247 30.8241 38.2297C30.8241 38.2297 28.3897 48.9459 32.0142 52.2747L33.2927 50.3075Z" fill="#BD2C72"/>
<path d="M34.559 41.0244L32.1762 24.7426C32.1762 24.7426 28.9394 38.0843 34.6719 43.9645L34.559 41.0244Z" fill="#BD2C72"/>
<path d="M35.0228 24.8404C35.0228 24.8404 28.9076 13.8943 29.0327 12.678C29.0327 12.678 29.683 24.1504 37.3762 29.8641L35.0228 24.8404Z" fill="#BD2C72"/>
<path d="M35.7393 21.6068C35.7393 21.6068 29.9676 6.06006 27.3566 4.80151C27.3566 4.80151 35.6019 9.31748 36.2203 21.1626L35.7393 21.6068Z" fill="#BD2C72"/>
<path d="M32.5369 51.8278L32.1418 51.6982C37.0129 34.5836 38.2276 23.6718 35.5651 20.9352L35.8473 20.6127C38.6718 23.4999 37.5258 34.2928 32.5369 51.8278Z" fill="#444053"/>
<path d="M19.1236 91.9004L18.5396 91.6756C19.0574 90.1077 19.6144 88.516 20.1985 86.9481C25.2831 73.2945 29.6118 60.5927 32.3873 50.8416L32.8952 50.5772C30.1149 60.3468 25.8622 73.5351 20.7727 87.2072C20.1911 88.7461 19.6365 90.3298 19.1236 91.9004Z" fill="#444053"/>
<path d="M31.413 186.101C31.3345 186.009 23.4401 176.429 17.9359 160.076C14.7108 150.502 12.9159 140.437 12.6182 130.257C12.2403 117.531 14.7188 103.322 18.9641 90.4144L19.4255 90.9961C9.89432 119.966 13.6808 144.791 18.704 159.74C24.1493 175.945 31.9553 185.419 32.0314 185.514L31.413 186.101Z" fill="#444053"/>
<path opacity="0.1" d="M17.2341 165.102C17.2341 165.102 13.9483 173.69 17.2341 179.248V165.102Z" fill="black"/>
<path opacity="0.1" d="M41.5994 139.672C41.5994 139.672 38.316 148.257 41.5994 153.818V139.672Z" fill="black"/>
<path opacity="0.1" d="M43.9159 110.58C43.9159 110.58 40.6301 119.168 43.9159 124.726V110.58Z" fill="black"/>
<path opacity="0.1" d="M49.5575 207.332C52.6733 207.332 55.1992 207.028 55.1992 206.653C55.1992 206.278 52.6733 205.973 49.5575 205.973C46.4417 205.973 43.9159 206.278 43.9159 206.653C43.9159 207.028 46.4417 207.332 49.5575 207.332Z" fill="#BD2C72"/>
<path opacity="0.1" d="M12.5741 195.783C15.6899 195.783 18.2157 195.479 18.2157 195.104C18.2157 194.729 15.6899 194.424 12.5741 194.424C9.45828 194.424 6.93243 194.729 6.93243 195.104C6.93243 195.479 9.45828 195.783 12.5741 195.783Z" fill="#BD2C72"/>
<path d="M125.026 22.9711C126.356 22.7464 127.522 21.9135 128.793 21.435C131.637 20.3589 134.783 21.0965 137.662 22.0669C138.766 22.4397 139.888 22.8601 141.046 22.8601C142.204 22.8601 143.433 22.3498 144.025 21.2737C144.57 20.2848 144.464 18.9998 144.005 17.9607C143.546 16.9216 142.778 16.0861 142.003 15.2982C139.451 12.7018 136.285 10.2746 132.783 10.539C131.375 10.6474 130.028 11.1894 128.732 11.7896C127.1 12.5471 125.512 13.4089 123.976 14.3702C122.796 15.1079 120.609 16.0941 119.93 17.4425C118.384 20.4805 122.622 23.3783 125.026 22.9711Z" fill="#3E373A"/>
<path opacity="0.1" d="M144.025 20.1632C143.434 21.2393 142.204 21.7496 141.046 21.7496C139.888 21.7496 138.766 21.345 137.659 20.9722C134.781 20.0019 131.637 19.2616 128.791 20.3403C127.522 20.8189 126.354 21.6623 125.024 21.8738C123.085 22.2017 119.964 20.3826 119.625 18.0691C119.245 20.7422 122.864 23.0319 125.024 22.667C126.354 22.4423 127.522 21.6094 128.791 21.1335C131.637 20.0548 134.781 20.7951 137.659 21.7654C138.766 22.1382 139.885 22.5586 141.046 22.5428C142.207 22.5269 143.434 22.0351 144.025 20.9564C144.331 20.3695 144.452 19.691 144.368 19.0236C144.33 19.4254 144.213 19.8138 144.025 20.1632Z" fill="black"/>
<path opacity="0.1" d="M147.203 36.334C131.321 35.7391 116.192 30.2157 101.748 24.1715C87.3043 18.1273 72.9977 11.4301 57.4961 8.22817C47.5257 6.16849 36.1222 5.87765 28.0904 11.6363C20.358 17.1887 17.8599 26.7468 16.5176 35.6254C15.5066 42.3041 14.9127 49.3319 17.6832 55.585C19.6047 59.9264 23.0181 63.5751 25.3764 67.7474C33.5897 82.2154 27.7861 100.057 18.8857 114.184C14.7139 120.813 9.86739 127.14 6.64781 134.189C3.42822 141.238 1.93622 149.326 4.75335 156.523C7.54841 163.661 14.206 169.013 21.4157 172.781C36.0633 180.435 53.3171 182.624 70.1536 183.864C107.412 186.611 144.867 185.422 182.223 184.232C196.049 183.79 209.933 183.343 223.533 181.04C231.086 179.761 238.882 177.733 244.367 172.831C251.326 166.609 253.052 156.073 248.389 148.273C240.563 135.188 218.942 131.939 213.464 117.894C210.456 110.165 213.548 101.556 217.921 94.3857C227.305 79.0082 243.032 65.5159 243.861 47.9385C244.431 35.8633 236.868 23.7749 225.177 18.0612C212.925 12.0514 195.928 12.8129 186.893 22.7253C177.583 32.9391 161.225 36.8575 147.203 36.334Z" fill="#924F9D"/>
<path d="M106.857 182.569L22.8635 182.127L14.5176 161.036L44.0288 158.728L38.8853 135.603L97.255 127.452L41.3614 106.516L46.2987 105.253L136.175 121.051L131.225 157.139L124.15 176.971L106.857 182.569Z" fill="#924F9D"/>
<path d="M154.778 165.763C154.778 165.763 149.215 173.079 153.632 184.139L109.216 204.895L104.953 205.857L102.99 196.603L104.303 184.924V178.542L154.778 165.763Z" fill="#D5D6DB"/>
<path d="M14.5176 161.036L75.994 148.961L157.453 162.942L106.857 182.569L14.5176 161.036Z" fill="#924F9D"/>
<path d="M14.5176 161.036L75.994 148.961L157.453 162.942L106.857 182.569L14.5176 161.036Z" fill="#924F9D"/>
<path d="M14.5176 161.033C14.5176 161.033 8.76796 172.77 15.3936 183.61L106.558 204.895C106.558 204.895 100.899 195.545 106.85 182.569L14.5176 161.033Z" fill="#924F9D"/>
<path opacity="0.1" d="M14.5176 161.033C14.5176 161.033 8.76796 172.77 15.3936 183.61L106.558 204.895C106.558 204.895 100.899 195.545 106.85 182.569L14.5176 161.033Z" fill="black"/>
<path d="M106.558 204.895L157.453 181.495C157.453 181.495 160.299 182.156 158.459 184.404C156.619 186.651 107.54 207.142 107.54 207.142L15.3937 183.61L106.558 204.895Z" fill="#924F9D"/>
<path opacity="0.1" d="M106.558 204.895L157.453 181.495C157.453 181.495 160.299 182.156 158.459 184.404C156.619 186.651 107.54 207.142 107.54 207.142L15.3937 183.61L106.558 204.895Z" fill="black"/>
<path opacity="0.1" d="M102.386 184.932C102.386 184.932 97.4783 191.278 102.386 200.796V184.932Z" fill="black"/>
<path opacity="0.1" d="M126.147 184.825L104.133 192.738L104.211 192.989L126.225 185.076L126.147 184.825Z" fill="black"/>
<path opacity="0.1" d="M130.556 184.038L104.126 194.867L104.213 195.114L130.644 184.285L130.556 184.038Z" fill="black"/>
<path opacity="0.1" d="M134.606 184L104.273 197.377L104.366 197.621L134.699 184.244L134.606 184Z" fill="black"/>
<path opacity="0.1" d="M139.009 182.854L104.628 199.588L104.729 199.829L139.11 183.095L139.009 182.854Z" fill="black"/>
<path opacity="0.1" d="M142.709 182.86L104.9 200.666L104.998 200.908L142.807 183.102L142.709 182.86Z" fill="black"/>
<path opacity="0.1" d="M150.801 181.379L105.47 202.474L105.567 202.717L150.898 181.622L150.801 181.379Z" fill="black"/>
<path opacity="0.3" d="M37.3565 162.326L80.546 152.543L106.857 157.964L71.4664 170.258L37.3565 162.326Z" fill="white"/>
<path d="M157.453 162.942C157.453 162.942 159.686 163.913 158.376 165.412C157.065 166.911 106.85 182.569 106.85 182.569L157.453 162.942Z" fill="#924F9D"/>
<path d="M179.143 140.333C179.143 140.333 173.583 147.647 178 158.709L133.583 179.465L129.321 180.432L127.358 171.178L128.69 159.502V153.112L179.143 140.333Z" fill="#D5D6DB"/>
<path d="M38.8853 135.603L100.359 123.531L181.821 137.512L131.225 157.139L38.8853 135.603Z" fill="#3A3768"/>
<path d="M38.8755 135.603C38.8755 135.603 33.1234 147.34 39.7491 158.18L130.913 179.465C130.913 179.465 125.257 170.107 131.215 157.136L38.8755 135.603Z" fill="#3A3768"/>
<path opacity="0.1" d="M38.8755 135.603C38.8755 135.603 33.1234 147.34 39.7491 158.18L130.913 179.465C130.913 179.465 125.257 170.107 131.215 157.136L102.386 150.412L38.8755 135.603Z" fill="black"/>
<path d="M130.923 179.465L181.821 156.065C181.821 156.065 184.665 156.726 182.824 158.974C180.984 161.221 131.905 181.712 131.905 181.712L39.759 158.18L130.923 179.465Z" fill="#3A3768"/>
<path opacity="0.1" d="M130.923 179.465L181.821 156.065C181.821 156.065 184.665 156.726 182.824 158.974C180.984 161.221 131.905 181.712 131.905 181.712L39.759 158.18L130.923 179.465Z" fill="black"/>
<path opacity="0.1" d="M126.752 159.502C126.752 159.502 121.844 165.848 126.752 175.366V159.502Z" fill="black"/>
<path opacity="0.1" d="M150.514 159.398L128.5 167.311L128.578 167.562L150.592 159.649L150.514 159.398Z" fill="black"/>
<path opacity="0.1" d="M154.927 158.609L128.496 169.438L128.584 169.685L155.014 158.856L154.927 158.609Z" fill="black"/>
<path opacity="0.1" d="M158.973 158.568L128.64 171.945L128.733 172.189L159.066 158.812L158.973 158.568Z" fill="black"/>
<path opacity="0.1" d="M163.379 157.423L128.997 174.157L129.098 174.398L163.48 157.663L163.379 157.423Z" fill="black"/>
<path opacity="0.1" d="M167.075 157.425L129.266 175.231L129.364 175.473L167.173 157.667L167.075 157.425Z" fill="black"/>
<path opacity="0.1" d="M175.169 155.944L129.838 177.039L129.935 177.282L175.266 156.187L175.169 155.944Z" fill="black"/>
<path opacity="0.45" d="M61.7242 136.896L104.914 127.113L131.225 132.533L95.8342 144.828L61.7242 136.896Z" fill="white"/>
<path d="M181.821 137.512C181.821 137.512 184.051 138.483 182.743 139.979C181.435 141.476 131.225 157.136 131.225 157.136L181.821 137.512Z" fill="#3A3768"/>
<path d="M181.45 111.241C181.45 111.241 175.887 124.374 180.304 135.434L135.888 150.373L131.635 151.343L129.672 142.089L130.985 130.41V124.02L181.45 111.241Z" fill="#D5D6DB"/>
<path d="M41.1994 106.514L102.676 94.4386L184.137 108.42L133.539 128.047L41.1994 106.514Z" fill="#924F9D"/>
<path d="M41.1995 106.511C41.1995 106.511 35.44 118.248 42.0657 129.088L133.23 150.373C133.23 150.373 127.571 141.015 133.529 128.047L41.1995 106.511Z" fill="#924F9D"/>
<path opacity="0.1" d="M41.1995 106.511C41.1995 106.511 35.44 118.248 42.0657 129.088L133.23 150.373C133.23 150.373 127.571 141.015 133.529 128.047L41.1995 106.511Z" fill="black"/>
<path d="M133.24 150.373L184.135 132.79C184.135 132.79 186.981 133.451 185.141 135.698C183.3 137.946 134.221 152.62 134.221 152.62L42.0755 129.088L133.24 150.373Z" fill="#924F9D"/>
<path opacity="0.1" d="M133.24 150.373L184.135 132.79C184.135 132.79 186.981 133.451 185.141 135.698C183.3 137.946 134.221 152.62 134.221 152.62L42.0755 129.088L133.24 150.373Z" fill="black"/>
<path opacity="0.1" d="M129.068 130.41C129.068 130.41 124.16 136.756 129.068 146.274V130.41Z" fill="black"/>
<path opacity="0.1" d="M152.832 130.305L130.817 138.219L130.895 138.469L152.909 130.556L152.832 130.305Z" fill="black"/>
<path opacity="0.1" d="M157.242 129.518L130.812 140.347L130.899 140.594L157.33 129.765L157.242 129.518Z" fill="black"/>
<path opacity="0.1" d="M161.286 129.478L130.953 142.855L131.046 143.099L161.379 129.722L161.286 129.478Z" fill="black"/>
<path opacity="0.1" d="M165.696 128.33L131.314 145.064L131.415 145.305L165.797 128.571L165.696 128.33Z" fill="black"/>
<path opacity="0.1" d="M169.393 128.335L131.584 146.141L131.682 146.383L169.491 128.577L169.393 128.335Z" fill="black"/>
<path opacity="0.1" d="M177.486 126.856L132.155 147.951L132.252 148.194L177.583 127.099L177.486 126.856Z" fill="black"/>
<path opacity="0.3" d="M64.0383 107.804L107.228 98.0212L133.539 103.441L98.1483 115.736L64.0383 107.804Z" fill="white"/>
<path d="M184.135 108.42C184.135 108.42 186.368 109.39 185.057 110.89C183.747 112.389 133.539 128.047 133.539 128.047L184.135 108.42Z" fill="#924F9D"/>
<path d="M76.1756 28.1587C76.1756 28.1587 66.8506 27.5532 67.9401 34.6021C67.9401 34.6021 67.7217 35.8474 68.7695 36.4133C68.7695 36.4133 68.7867 35.8845 69.7266 36.0669C70.062 36.129 70.4031 36.1467 70.7425 36.1198C71.2 36.086 71.6349 35.893 71.9818 35.5698C71.9818 35.5698 74.6051 34.4012 75.6259 29.7795C75.6259 29.7795 76.3817 28.7721 76.3621 28.513L74.7817 29.2374C74.7817 29.2374 75.3192 30.4616 74.8971 31.4795C74.8971 31.4795 74.8455 29.2824 74.5412 29.3326C74.4799 29.3326 73.7241 29.7583 73.7241 29.7583C73.7241 29.7583 74.6492 31.892 73.9498 33.4414C73.9498 33.4414 74.2149 30.8133 73.4345 29.9117L72.3253 30.6097C72.3253 30.6097 73.4075 32.8121 72.6738 34.6101C72.6738 34.6101 72.8627 31.8524 72.0922 30.7789L71.0861 31.625C71.0861 31.625 72.1045 33.7957 71.4836 35.2869C71.4836 35.2869 71.4026 32.0771 70.8701 31.8338C70.8701 31.8338 69.9892 32.6693 69.8566 33.0131C69.8566 33.0131 70.5536 34.5995 70.1192 35.4218C70.1192 35.4218 69.8567 33.2828 69.6284 33.2722C69.6284 33.2722 68.7524 34.6894 68.6616 35.6518C68.704 34.7545 68.9637 33.8849 69.4149 33.1294C68.91 33.2323 68.4442 33.4925 68.0751 33.8777C68.0751 33.8777 68.21 32.8756 69.6333 32.7883C69.6333 32.7883 70.3573 31.7122 70.5511 31.6488C70.5511 31.6488 69.1352 31.5192 68.2788 31.929C68.2788 31.929 69.0346 30.9851 70.8088 31.4002L71.7904 30.5277C71.7904 30.5277 69.9303 30.2633 69.1401 30.5568C69.1401 30.5568 70.0505 29.7213 72.0578 30.3294L73.14 29.634C73.14 29.634 71.5523 29.2665 70.6076 29.3987C70.6076 29.3987 71.6039 28.8197 73.4566 29.4463L74.2271 29.0735C74.2271 29.0735 73.0664 28.8276 72.7253 28.7879C72.3842 28.7483 72.367 28.6478 72.367 28.6478C73.1038 28.5175 73.8596 28.609 74.5511 28.9122C74.5511 28.9122 76.2075 28.2697 76.1756 28.1587Z" fill="#924F9D"/>
<path opacity="0.1" d="M207.364 57.1317C207.364 57.1317 198.039 56.5262 199.128 63.5751C199.128 63.5751 198.91 64.8205 199.958 65.3863C199.958 65.3863 199.975 64.8575 200.915 65.0399C201.25 65.1006 201.591 65.1183 201.931 65.0928C202.384 65.0568 202.815 64.8639 203.158 64.5428C203.158 64.5428 205.784 63.3742 206.802 58.7525C206.802 58.7525 207.558 57.7451 207.538 57.486L205.963 58.2104C205.963 58.2104 206.5 59.4346 206.078 60.4526C206.078 60.4526 206.026 58.2554 205.725 58.3056C205.663 58.3056 204.905 58.7313 204.905 58.7313C204.905 58.7313 205.83 60.865 205.133 62.4144C205.133 62.4144 205.398 59.7863 204.615 58.8847L203.506 59.5827C203.506 59.5827 204.588 61.7851 203.855 63.5831C203.855 63.5831 204.044 60.8254 203.273 59.7519L202.269 60.598C202.269 60.598 203.285 62.7687 202.665 64.2599C202.665 64.2599 202.584 61.0501 202.051 60.8069C202.051 60.8069 201.173 61.6424 201.038 61.9861C201.038 61.9861 201.735 63.5725 201.303 64.3948C201.303 64.3948 201.038 62.2558 200.812 62.2452C200.812 62.2452 199.936 63.6624 199.845 64.6248C199.887 63.7272 200.148 62.8574 200.601 62.1024C200.095 62.2056 199.629 62.4657 199.258 62.8507C199.258 62.8507 199.396 61.8486 200.817 61.7614C200.817 61.7614 201.541 60.6852 201.734 60.6191C201.734 60.6191 200.321 60.4922 199.462 60.9021C199.462 60.9021 200.218 59.9581 201.992 60.3733L202.974 59.5007C202.974 59.5007 201.111 59.2363 200.323 59.5298C200.323 59.5298 201.231 58.6943 203.241 59.3024L204.321 58.607C204.321 58.607 202.733 58.2395 201.788 58.3717C201.788 58.3717 202.785 57.7927 204.638 58.4193L205.411 58.0465C205.411 58.0465 204.247 57.8006 203.906 57.761C203.565 57.7213 203.548 57.6208 203.548 57.6208C204.285 57.4888 205.041 57.5804 205.732 57.8852C205.732 57.8852 207.393 57.2427 207.364 57.1317Z" fill="#924F9D"/>
<path opacity="0.1" d="M91.8809 71.7054C91.8809 71.7054 87.8172 62.6285 82.6442 67.1022C82.6442 67.1022 81.5277 67.5041 81.5817 68.7653C81.5817 68.7653 82.0111 68.5247 82.3179 69.4977C82.4324 69.8416 82.584 70.17 82.7694 70.476C83.0205 70.8908 83.39 71.2063 83.8221 71.3749C83.8221 71.3749 86.0479 73.2733 90.2908 71.9778C90.2908 71.9778 91.476 72.1972 91.6699 72.0439L90.3153 70.9149C90.3153 70.9149 89.5791 72.0174 88.5534 72.1153C88.5534 72.1153 90.3104 70.9968 90.1214 70.7377C90.0822 70.6848 89.3852 70.1745 89.3852 70.1745C89.3852 70.1745 88.1067 72.0862 86.5117 72.184C86.5117 72.184 88.7693 71.1528 89.1178 69.9762L88.0135 69.2729C88.0135 69.2729 86.7546 71.367 84.9411 71.5521C84.9411 71.5521 87.2675 70.3861 87.7607 69.1381L86.5877 68.6093C86.5877 68.6093 85.324 70.624 83.8123 70.7695C83.8123 70.7695 86.3742 69.1275 86.3104 68.5062C86.3104 68.5062 85.2037 68.0884 84.8602 68.1281C84.8602 68.1281 83.9227 69.5532 83.0393 69.5532C83.0393 69.5532 84.6418 68.2603 84.5436 68.0514C84.5436 68.0514 82.9682 67.9192 82.1387 68.3158C82.8861 67.9156 83.7178 67.7332 84.551 67.787C84.2204 67.3623 83.7821 67.0508 83.2896 66.8907C83.2896 66.8907 84.1681 66.5311 84.9313 67.824C84.9313 67.824 86.1583 67.98 86.3031 68.1307C86.3031 68.1307 85.7166 66.74 84.9681 66.1345C84.9681 66.1345 86.1019 66.3804 86.6196 68.2497L87.8098 68.7574C87.8098 68.7574 87.1252 66.8748 86.4945 66.2799C86.4945 66.2799 87.6135 66.7268 88.1018 68.9239L89.1914 69.6008C89.1914 69.6008 88.7178 67.9271 88.1485 67.1049C88.1485 67.1049 89.103 67.7606 89.4981 69.807L90.1779 70.3517C90.1779 70.3517 89.8098 69.1381 89.6871 68.7997C89.5644 68.4612 89.6257 68.3925 89.6257 68.3925C90.0926 69.0202 90.3882 69.7755 90.4797 70.5738C90.4797 70.5738 91.7926 71.7848 91.8809 71.7054Z" fill="#924F9D"/>
<path opacity="0.1" d="M186.059 44.3083C186.059 44.3083 181.997 35.2314 176.822 39.7051C176.822 39.7051 175.708 40.1069 175.759 41.3681C175.759 41.3681 176.191 41.1302 176.496 42.1005C176.61 42.4459 176.762 42.7752 176.95 43.0814C177.2 43.4955 177.568 43.8102 178 43.9778C178 43.9778 180.228 45.8762 184.468 44.5832C184.468 44.5832 185.654 44.8 185.85 44.6467L184.503 43.5151C184.503 43.5151 183.767 44.6203 182.743 44.7181C182.743 44.7181 184.498 43.597 184.309 43.3379C184.27 43.285 183.573 42.7747 183.573 42.7747C183.573 42.7747 182.297 44.6864 180.699 44.7842C180.699 44.7842 182.959 43.753 183.308 42.5791L182.186 41.8811C182.186 41.8811 180.93 43.9725 179.114 44.1602C179.114 44.1602 181.44 42.9916 181.936 41.7436L180.761 41.2148C180.761 41.2148 179.497 43.2322 177.988 43.3749C177.988 43.3749 180.547 41.733 180.483 41.1143C180.483 41.1143 179.379 40.6939 179.035 40.7362C179.035 40.7362 178.098 42.1587 177.212 42.1587C177.212 42.1587 178.817 40.8658 178.719 40.6569C178.719 40.6569 177.143 40.5247 176.312 40.9213C177.059 40.5209 177.891 40.3386 178.724 40.3925C178.394 39.9676 177.957 39.6559 177.465 39.4962C177.465 39.4962 178.343 39.1366 179.107 40.4295C179.107 40.4295 180.334 40.5881 180.478 40.7389C180.478 40.7389 179.892 39.3455 179.141 38.74C179.141 38.74 180.275 38.9885 180.792 40.8684L181.985 41.3761C181.985 41.3761 181.3 39.4909 180.67 38.896C180.67 38.896 181.789 39.3428 182.275 41.54L183.367 42.2169C183.367 42.2169 182.891 40.5458 182.321 39.7209C182.321 39.7209 183.278 40.3766 183.671 42.4231L184.351 42.9678C184.351 42.9678 183.985 41.7542 183.86 41.4157C183.735 41.0773 183.799 41.0112 183.799 41.0112C184.264 41.6395 184.559 42.3946 184.65 43.1925C184.65 43.1925 185.983 44.3929 186.059 44.3083Z" fill="#924F9D"/>
<path opacity="0.1" d="M199.038 89.2061C199.038 89.2061 194.976 80.1266 189.793 84.6003C189.793 84.6003 188.679 85.0022 188.731 86.2634C188.731 86.2634 189.163 86.0254 189.467 86.9958C189.581 87.341 189.732 87.6703 189.919 87.9767C190.169 88.3907 190.538 88.7054 190.969 88.873C190.969 88.873 193.197 90.774 197.44 89.4785C197.44 89.4785 198.623 89.6979 198.819 89.5419L197.465 88.4129C197.465 88.4129 196.728 89.5181 195.703 89.616C195.703 89.616 197.457 88.4949 197.268 88.2358C197.229 88.1829 196.532 87.6726 196.532 87.6726C196.532 87.6726 195.256 89.5842 193.658 89.6847C193.658 89.6847 195.919 88.6509 196.267 87.477L195.16 86.7737C195.16 86.7737 193.904 88.8677 192.088 89.0528C192.088 89.0528 194.414 87.8841 194.91 86.6362L193.735 86.1074C193.735 86.1074 192.471 88.1221 190.962 88.2675C190.962 88.2675 193.524 86.6256 193.46 86.0043C193.46 86.0043 192.353 85.5839 192.009 85.6262C192.009 85.6262 191.072 87.0486 190.186 87.0486C190.186 87.0486 191.791 85.7557 191.693 85.5468C191.693 85.5468 190.117 85.4146 189.286 85.8112C190.034 85.4111 190.866 85.2288 191.7 85.2824C191.37 84.8568 190.932 84.5451 190.439 84.3861C190.439 84.3861 191.317 84.0239 192.081 85.3195C192.081 85.3195 193.308 85.4755 193.452 85.6262C193.452 85.6262 192.866 84.2354 192.117 83.6273C192.117 83.6273 193.251 83.8758 193.769 85.7557L194.959 86.2634C194.959 86.2634 194.274 84.3782 193.644 83.7859C193.644 83.7859 194.763 84.2301 195.249 86.4299L196.341 87.1042C196.341 87.1042 195.865 85.4332 195.295 84.6082C195.295 84.6082 196.252 85.2639 196.647 87.313L197.327 87.8418C197.327 87.8418 196.959 86.6282 196.836 86.2898C196.714 85.9514 196.775 85.8853 196.775 85.8853C197.242 86.5129 197.537 87.2683 197.627 88.0666C197.627 88.0666 198.961 89.2855 199.038 89.2061Z" fill="#924F9D"/>
<path opacity="0.1" d="M77.7486 215.003C80.8643 215.003 83.3902 214.698 83.3902 214.323C83.3902 213.948 80.8643 213.644 77.7486 213.644C74.6328 213.644 72.1069 213.948 72.1069 214.323C72.1069 214.698 74.6328 215.003 77.7486 215.003Z" fill="#924F9D"/>
<path opacity="0.1" d="M222.213 198.295C225.328 198.295 227.854 197.991 227.854 197.616C227.854 197.24 225.328 196.936 222.213 196.936C219.097 196.936 216.571 197.24 216.571 197.616C216.571 197.991 219.097 198.295 222.213 198.295Z" fill="#924F9D"/>
<path opacity="0.1" d="M175.266 194.998C178.382 194.998 180.908 194.694 180.908 194.319C180.908 193.943 178.382 193.639 175.266 193.639C172.15 193.639 169.625 193.943 169.625 194.319C169.625 194.694 172.15 194.998 175.266 194.998Z" fill="#924F9D"/>
<path opacity="0.1" d="M144.896 211.079C148.581 211.079 151.568 210.526 151.568 209.844C151.568 209.162 148.581 208.609 144.896 208.609C141.211 208.609 138.224 209.162 138.224 209.844C138.224 210.526 141.211 211.079 144.896 211.079Z" fill="#924F9D"/>
<path d="M147.873 197.433C147.873 197.433 138.582 202.605 143.382 208.697C143.382 208.697 143.833 210.019 145.139 209.926C145.139 209.926 144.879 209.413 145.875 209.003C146.23 208.856 146.567 208.663 146.879 208.43C147.301 208.115 147.616 207.661 147.777 207.137C147.777 207.137 149.676 204.398 148.204 199.329C148.204 199.329 148.395 197.896 148.228 197.663L147.1 199.332C147.1 199.332 148.265 200.175 148.4 201.415C148.4 201.415 147.173 199.334 146.928 199.564C146.874 199.612 146.368 200.477 146.368 200.477C146.368 200.477 148.39 201.955 148.54 203.874C148.54 203.874 147.402 201.185 146.172 200.802L145.468 202.155C145.468 202.155 147.676 203.604 147.922 205.783C147.922 205.783 146.638 203.02 145.328 202.462L144.81 203.893C144.81 203.893 146.94 205.352 147.136 207.166C147.136 207.166 145.355 204.133 144.714 204.228C144.714 204.228 144.312 205.571 144.366 205.987C144.366 205.987 145.87 207.071 145.897 208.136C145.897 208.136 144.508 206.246 144.295 206.37C144.295 206.37 144.206 208.271 144.633 209.26C144.633 209.26 143.897 207.848 144.018 206.37C143.587 206.78 143.277 207.317 143.127 207.914C143.127 207.914 142.727 206.87 144.044 205.907C144.044 205.907 144.17 204.429 144.322 204.247C144.322 204.247 142.896 204.998 142.29 205.918C142.29 205.918 142.513 204.546 144.447 203.863L144.938 202.415C144.938 202.415 143.004 203.298 142.408 204.075C142.408 204.075 142.837 202.713 145.09 202.06L145.757 200.738C145.757 200.738 144.04 201.362 143.2 202.06C143.2 202.06 143.851 200.889 145.963 200.35L146.506 199.517C146.506 199.517 145.259 199.995 144.911 200.167C144.562 200.339 144.494 200.254 144.494 200.254C145.131 199.674 145.904 199.295 146.729 199.16C146.729 199.16 147.959 197.523 147.873 197.433Z" fill="#924F9D"/>
<path d="M175.448 99.7557C173.843 95.0573 165.009 94.6158 161.176 95.8135C158.452 96.6675 152.709 97.6299 149.642 98.1138L149.443 97.9102C149.841 97.7833 149.851 97.4713 149.801 97.0086C149.773 96.3988 149.781 95.7876 149.826 95.1789C151.706 95.8082 153.379 94.3196 153.379 94.3196C155.588 93.262 154.994 88.7355 155.416 87.4981C155.733 86.5727 156.074 81.1208 156.226 78.4027H156.258L156.275 77.4905C156.297 77.0966 156.307 76.8666 156.307 76.8666C156.307 76.8666 156.523 70.2195 156.945 68.8737C157.338 67.6363 157.657 61.4018 157.706 60.4129C157.706 60.3283 157.706 60.2834 157.706 60.2834L157.674 59.707C157.696 59.2866 157.706 58.8186 157.703 58.3268C157.703 56.0662 157.485 53.2186 157.458 52.7585C157.458 52.6924 157.458 52.6131 157.458 52.5179C157.475 51.5529 157.362 46.7196 153.546 44.8926C152.14 44.2157 150.449 43.4093 148.813 42.624C148.39 38.6977 147.426 34.7925 147.509 30.8371C147.509 30.2422 147.559 29.6473 147.613 29.055C147.613 29.2269 147.595 29.4014 147.593 29.5838C147.593 29.9672 147.593 30.3532 147.593 30.7366C147.738 25.7897 149.473 20.8163 149.311 15.9751C149.296 16.4484 149.264 16.9243 149.222 17.4002C149.307 15.7627 149.148 14.1212 148.751 12.5379C148.604 11.98 148.405 11.4036 147.981 11.0308C147.579 10.7306 147.119 10.5342 146.636 10.4571C145.475 10.1368 144.295 9.9001 143.105 9.74847C142.924 9.15191 142.655 8.59044 142.31 8.08539C139.821 4.40494 136.135 0.946576 131.777 0.153374C129.591 -0.243227 127.075 0.0872736 125.588 1.77151C125.433 1.91946 125.287 2.07846 125.152 2.24743C124.352 3.27594 124.008 4.62703 123.188 5.65291C123.134 5.72165 123.073 5.78511 123.014 5.85121C121.409 7.39795 118.909 7.72052 117.125 9.10862C116.81 9.35781 116.516 9.63461 116.244 9.9362C115.525 10.7037 114.88 11.548 114.32 12.4559C113.517 13.6722 112.693 14.9387 112.438 16.3902C111.925 19.2986 113.763 22.0563 114.104 24.9832C114.865 31.5324 108.138 37.344 109.412 43.8059C109.752 45.3934 110.502 46.8446 111.576 47.9914C108.953 50.5508 106.72 53.0335 106.72 53.0335V53.1816H106.305L106.347 53.7104H106.305L106.533 56.5791L106.305 60.7566C106.305 60.7566 106.305 60.8016 106.305 60.8862V60.9073V61.021C106.305 61.021 106.305 61.066 106.305 61.1506H106.32C106.396 62.6815 106.698 68.1863 107.056 69.347C107.478 70.6928 107.692 77.3398 107.692 77.3398C107.692 77.3398 108.158 86.734 108.585 87.9767C109.012 89.2194 108.406 93.7327 110.622 94.7982C111.27 95.334 112.037 95.6768 112.847 95.7924C112.735 96.7812 112.806 97.4977 113.171 97.7225C113.328 97.8216 113.505 97.8762 113.687 97.8811C113.536 98.1214 113.403 98.3732 113.287 98.6347C112.407 98.5357 111.543 98.3163 110.715 97.9816C108.335 96.924 100.435 94.5444 98.1409 96.218C95.8464 97.8917 90.325 99.4094 92.8747 106.146C95.4244 112.883 96.6121 113.052 96.6121 113.052C97.3969 113.666 98.0854 114.412 98.6513 115.26C99.4169 116.5 106.551 119.337 108.335 119.337C109.093 119.325 109.851 119.365 110.605 119.459C110.605 119.459 108.668 121.289 108.926 122.351C109.184 123.414 108.337 131.923 108.337 131.923C108.337 131.923 110.3 134.054 111.139 131.259L111.169 131.301C111.326 131.531 112.175 132.57 113.773 131.259C114.426 130.725 115.121 130.251 115.849 129.842L123.583 128.663C124.39 128.608 125.198 128.602 126.006 128.644C127.232 128.753 128.437 127.97 129.196 127.364C130.798 128.02 132.599 128.737 133.456 128.998C135.193 129.527 143.178 131.835 145.046 131.114C145.434 130.947 145.779 130.682 146.052 130.342L147.833 130.402L146.999 130.582C146.999 130.582 148.624 130.611 150.832 130.643L150.739 130.701L153.509 130.675C157.563 130.714 162.118 130.728 162.717 130.582C163.654 130.357 168.525 130.516 169.961 130.582H170.361C170.361 130.582 175.713 129.432 173.504 123.581C171.806 119.086 166.587 117.78 164.27 117.42C164.923 117.28 165.485 117.172 165.858 117.108C167.475 116.844 170.616 115.258 170.871 114.716C171.126 114.173 173.759 112.6 174.439 111.704C175.119 110.808 177.06 104.454 175.448 99.7557ZM131.117 112.904L130.855 112.997L130.678 113.06L130.339 113.42C130.069 113.224 129.78 113.018 129.478 112.807C130.01 112.841 130.558 112.875 131.117 112.904Z" fill="url(#paint0_linear)"/>
<path d="M146.763 85.026C146.763 85.026 150.518 95.602 152.653 94.5444C154.788 93.4868 154.209 88.992 154.616 87.7599C155.023 86.5277 155.475 77.1838 155.475 77.1838C155.475 77.1838 155.681 70.5738 156.088 69.2359C156.466 68.0065 156.773 61.8063 156.825 60.8306C156.825 60.746 156.825 60.7011 156.825 60.7011L156.42 53.0335L154.128 52.4174L148.813 54.5326L148.076 59.0618L147.789 60.8306L147.667 61.5842L146.763 85.026Z" fill="#BE6F72"/>
<path opacity="0.1" d="M148 83.2545C148 83.2545 151.583 86.414 152.663 86.6917C153.742 86.9693 154.405 89.4335 154.405 89.4335" fill="black"/>
<path d="M117.402 85.4887C117.402 85.4887 113.647 96.0647 111.512 95.0071C109.378 93.9495 109.957 89.4547 109.549 88.2226C109.142 86.9905 108.69 77.6465 108.69 77.6465C108.69 77.6465 108.484 71.0365 108.077 69.6987C107.699 68.4692 107.392 62.269 107.341 61.2934C107.341 61.2087 107.341 61.1638 107.341 61.1638L107.748 53.4962L110.04 52.8801L115.355 54.9953L116.092 59.5245L116.379 61.2934L116.501 62.0469L117.402 85.4887Z" fill="#BE6F72"/>
<path d="M141.851 28.8911H133.47V42.9651H141.851V28.8911Z" fill="#3E373A"/>
<path opacity="0.1" d="M141.851 28.8911H133.47V42.9651H141.851V28.8911Z" fill="black"/>
<path d="M115.93 96.0224C115.93 96.0224 113.066 99.4146 114.128 100.031C115.191 100.647 122.064 112.193 122.064 112.193C122.064 112.193 144.641 115.189 148.898 110.694C153.156 106.199 153.07 98.1693 153.07 98.1693C153.07 98.1693 149.649 98.9625 149.276 98.5315C148.903 98.1006 146.854 96.0224 146.854 96.0224C146.854 96.0224 117.893 94.1293 115.93 96.0224Z" fill="#4B4B5B"/>
<path opacity="0.02" d="M115.93 96.0224C115.93 96.0224 113.066 99.4146 114.128 100.031C115.191 100.647 122.064 112.193 122.064 112.193C122.064 112.193 144.641 115.189 148.898 110.694C153.156 106.199 153.07 98.1693 153.07 98.1693C153.07 98.1693 149.649 98.9625 149.276 98.5315C148.903 98.1006 146.854 96.0224 146.854 96.0224C146.854 96.0224 117.893 94.1293 115.93 96.0224Z" fill="black"/>
<path d="M156.572 53.1445L149.21 59.4901L146.984 59.6646L146.167 59.7281L132.442 60.8121L118.209 59.6911L116.091 59.5245L113.392 59.313L107.748 53.4962C107.748 53.4962 111.743 48.885 115.242 45.773C116.622 44.5436 117.925 43.5494 118.874 43.1581L119.036 43.0973C119.634 42.8463 120.167 42.4457 120.592 41.9286C123.355 38.859 125.91 31.2839 125.91 31.2839C125.91 31.2839 138.099 24.4994 136.626 33.3991C135.154 42.2988 142.106 40.099 142.106 40.099L144.398 41.2253L145.303 41.6722L147.612 42.8117L152.822 45.387C156.911 47.415 156.572 53.1445 156.572 53.1445Z" fill="#BE6F72"/>
<path opacity="0.1" d="M131.871 38.5311C137.925 38.5311 142.832 33.2433 142.832 26.7203C142.832 20.1974 137.925 14.9096 131.871 14.9096C125.816 14.9096 120.909 20.1974 120.909 26.7203C120.909 33.2433 125.816 38.5311 131.871 38.5311Z" fill="black"/>
<path opacity="0.1" d="M156.589 61.5578H107.341C107.341 61.4732 107.341 61.4282 107.341 61.4282L107.748 53.7606C107.748 53.7606 111.743 49.1494 115.242 46.0374L146.162 44.7154L147.6 43.0815L152.81 45.6567C156.901 47.682 156.572 53.4116 156.572 53.4116C156.572 53.4116 157.131 60.0507 156.589 61.5578Z" fill="black"/>
<path d="M156.589 61.2934H107.341C107.341 61.2087 107.341 61.1638 107.341 61.1638L107.748 53.4962C107.748 53.4962 111.743 48.885 115.242 45.773L146.162 44.451L147.6 42.817L152.81 45.3923C156.901 47.4176 156.572 53.1472 156.572 53.1472C156.572 53.1472 157.131 59.7863 156.589 61.2934Z" fill="#E7C7CA"/>
<path opacity="0.1" d="M123.976 39.7923C123.976 39.7923 131.745 50.4582 142.094 39.5729C152.442 28.6875 143.24 63.8528 143.24 63.8528L120.909 66.7083L123.976 39.7923Z" fill="black"/>
<path d="M123.976 40.3211C123.976 40.3211 131.745 50.987 142.094 40.1016C152.442 29.2163 143.24 64.3815 143.24 64.3815L120.909 67.2371L123.976 40.3211Z" fill="#E7C7CA"/>
<path opacity="0.1" d="M145.291 42.193L146.113 55.7013L146.994 60.1961L147.667 63.6333C147.667 63.6333 149.384 90.0733 148.894 91.3953C148.403 92.7174 149.139 93.775 149.242 94.4783C149.345 95.1816 149.139 96.9478 149.22 97.741C149.301 98.5342 149.22 98.8858 147.34 98.6029C145.461 98.32 142.84 97.8282 142.84 97.8282C142.84 97.8282 136.214 98.357 133.924 97.4766C131.635 96.5961 127.299 96.5935 127.299 96.5935C127.299 96.5935 120.754 96.7706 118.629 96.5062C116.504 96.2418 115.355 99.3274 113.966 98.4443C112.578 97.5612 115.601 89.0157 116.582 86.5462C117.564 84.0767 115.274 77.821 115.274 77.821L118.219 60.2199L118.874 56.2301V43.6869L119.036 43.6261C119.634 43.3751 120.167 42.9745 120.592 42.4574L121.328 55.0799L144.395 55.963V41.7568" fill="black"/>
<path d="M145.291 41.6643L146.113 55.1725L146.994 59.6673L147.667 63.1045C147.667 63.1045 149.384 89.5446 148.894 90.8666C148.403 92.1886 149.139 93.2462 149.242 93.9495C149.345 94.6528 149.139 96.419 149.22 97.2122C149.301 98.0054 149.22 98.357 147.34 98.0741C145.461 97.7912 142.84 97.2994 142.84 97.2994C142.84 97.2994 136.214 97.8282 133.924 96.9478C131.635 96.0673 127.299 96.0647 127.299 96.0647C127.299 96.0647 120.754 96.2418 118.629 95.9774C116.504 95.713 115.355 98.7986 113.966 97.9155C112.578 97.0324 115.601 88.487 116.582 86.0175C117.564 83.548 115.274 77.2922 115.274 77.2922L118.219 59.6911L118.874 55.7013V43.1581L119.036 43.0973C119.634 42.8463 120.167 42.4457 120.592 41.9287L121.328 54.5511L144.395 55.4342V41.228" fill="#E7C7CA"/>
<path opacity="0.1" d="M147.944 13.4739C147.804 12.9213 147.61 12.3475 147.208 11.9774C146.823 11.6801 146.379 11.4844 145.912 11.4063C144.793 11.0891 143.655 10.8542 142.506 10.703C142.342 10.1159 142.093 9.56006 141.77 9.05574C139.365 5.39643 135.807 1.94601 131.62 1.16603C129.429 0.756205 126.889 1.12372 125.485 2.9851C124.715 4.00833 124.383 5.36471 123.606 6.36943C122.106 8.32071 119.399 8.56131 117.51 10.071C116.501 10.8642 115.77 12.0144 115.056 13.1302C114.283 14.3385 113.488 15.597 113.242 17.0406C112.752 19.9253 114.521 22.675 114.847 25.5861C115.584 32.0983 109.105 37.8754 110.33 44.3003C111.044 48.0469 114.256 50.6856 117.579 52.0235C118.749 52.4968 120.087 52.9674 120.634 54.1784C120.879 54.7072 120.921 55.3179 121.152 55.852C121.927 57.6341 124.477 57.7028 125.846 56.4046C127.215 55.1064 127.647 53.0071 127.809 51.0479C128.467 42.4918 125.286 34.039 125.657 25.4618C125.767 22.868 126.445 19.9252 128.602 18.7513C131.505 17.1649 134.997 19.8089 138.192 19.3039C139.704 23.2676 140.025 27.6422 139.11 31.8127C138.602 34.0945 137.723 36.3075 137.659 38.6607C137.564 42.2433 139.357 45.5166 140.908 48.6841C141.241 49.2764 141.464 49.9329 141.564 50.6169C141.588 51.3109 141.468 52.0019 141.213 52.6395C140.337 55.1804 138.825 57.5389 138.653 60.2437C138.603 60.5594 138.669 60.8839 138.837 61.148C139.01 61.3242 139.233 61.4323 139.47 61.4547C142.121 61.9438 144.413 59.4135 145.706 56.8726C147.148 54.0662 147.988 50.9475 148.165 47.7455C148.432 42.3623 146.641 37.0663 146.751 31.6779C146.879 25.5517 149.448 19.3832 147.944 13.4739Z" fill="black"/>
<path d="M148.189 13.2094C148.049 12.6568 147.856 12.0831 147.453 11.7129C147.069 11.4156 146.625 11.22 146.157 11.1418C145.038 10.8247 143.9 10.5897 142.751 10.4385C142.587 9.85142 142.339 9.29562 142.015 8.7913C139.61 5.132 136.052 1.68157 131.866 0.901591C129.674 0.49177 127.134 0.859286 125.731 2.72067C124.96 3.7439 124.629 5.10027 123.851 6.10499C122.352 8.05627 119.645 8.29688 117.755 9.8066C116.747 10.5998 116.016 11.7499 115.301 12.8657C114.528 14.074 113.733 15.3326 113.488 16.7762C112.997 19.6608 114.766 22.4106 115.093 25.3216C115.829 31.8338 109.351 37.611 110.575 44.0359C111.289 47.7825 114.501 50.4212 117.824 51.759C118.995 52.2323 120.332 52.703 120.879 53.9139C121.125 54.4427 121.166 55.0535 121.397 55.5876C122.172 57.3696 124.722 57.4384 126.091 56.1402C127.461 54.842 127.893 52.7426 128.055 50.7834C128.712 42.2274 125.532 33.7745 125.902 25.1974C126.013 22.6036 126.69 19.6608 128.847 18.4869C131.75 16.9005 135.242 19.5445 138.437 19.0395C139.949 23.0032 140.27 27.3778 139.355 31.5483C138.847 33.83 137.969 36.0431 137.905 38.3962C137.809 41.9789 139.603 45.2521 141.154 48.4197C141.487 49.012 141.709 49.6685 141.809 50.3524C141.833 51.0464 141.714 51.7375 141.458 52.3751C140.582 54.916 139.07 57.2744 138.899 59.9793C138.848 60.295 138.914 60.6194 139.083 60.8835C139.256 61.0598 139.479 61.1678 139.716 61.1902C142.366 61.6794 144.658 59.149 145.951 56.6082C147.393 53.8018 148.233 50.6831 148.41 47.481C148.678 42.0979 146.886 36.8019 146.997 31.4134C147.124 25.2873 149.694 19.1188 148.189 13.2094Z" fill="#3E373A"/>
<path d="M142.768 130.278L152.503 130.614L151.107 122.835L143.649 123.599L142.768 130.278Z" fill="#C3C7D9"/>
<path d="M172.932 111.841C172.277 112.722 169.742 114.308 169.497 114.837C169.252 115.366 166.226 116.952 164.67 117.217C163.114 117.481 158.209 118.629 157.308 119.245C156.663 119.689 151.482 121.096 148.079 121.876C147.157 122.11 146.224 122.291 145.284 122.418C143.811 122.505 127.699 116.601 127.699 116.601L130.805 113.164L130.977 113.1C131.856 112.78 135.915 111.302 138.167 110.599C140.705 109.806 143.649 106.546 143.649 106.546C143.649 106.546 147.983 104.959 148.557 104.782C149.132 104.605 147.085 98.6135 147.085 98.6135C147.085 98.6135 156.491 97.2069 160.172 96.0145C163.853 94.822 172.361 95.2636 173.914 99.9355C175.467 104.607 173.597 110.961 172.932 111.841Z" fill="#4B4B5B"/>
<path d="M130.069 126.735C130.069 126.735 128.189 128.85 126.307 128.676C124.425 128.501 117.844 129.205 117.844 129.205C116.651 129.717 115.534 130.415 114.528 131.275C112.99 132.581 112.173 131.539 112.02 131.317L111.993 131.275C111.174 134.054 109.294 131.936 109.294 131.936C109.294 131.936 110.111 123.475 109.861 122.417C109.611 121.36 111.478 119.543 111.478 119.543L113.687 118.938L119.282 117.394L127.299 120.39L130.069 126.735Z" fill="#E7C7CA"/>
<path opacity="0.1" d="M113.677 118.938L112.02 131.317L111.993 131.275C111.174 134.054 109.294 131.936 109.294 131.936C109.294 131.936 110.111 123.475 109.861 122.417C109.611 121.36 111.478 119.543 111.478 119.543L113.677 118.938Z" fill="black"/>
<path opacity="0.1" d="M125.255 83.7251C125.255 83.7251 129.588 85.3115 133.353 83.7251H125.255Z" fill="black"/>
<path opacity="0.1" d="M140.049 86.7234C140.049 86.7234 141.848 87.6911 143.24 86.7234H140.049Z" fill="black"/>
<path opacity="0.1" d="M140.049 89.0184C140.049 89.0184 143.075 89.4547 143.649 88.5742L140.049 89.0184Z" fill="black"/>
<path opacity="0.1" d="M139.068 93.9495C139.068 93.9495 144.751 93.1563 146.162 92.0987L139.068 93.9495Z" fill="black"/>
<path opacity="0.1" d="M121.726 92.0987C121.726 92.0987 124.916 94.0368 127.289 93.9495L121.726 92.0987Z" fill="black"/>
<path opacity="0.1" d="M148.076 121.875C147.154 122.11 146.221 122.291 145.281 122.418C143.809 122.505 127.696 116.601 127.696 116.601L130.803 113.163L130.975 113.1C131.466 113.473 131.868 113.793 132.155 114.036C133.507 115.183 134.813 113.684 135.304 113.684C135.794 113.684 140.047 117.473 140.047 117.473C140.047 117.473 143.973 118.444 144.629 119.324C145.284 120.204 147.573 120.03 147.981 120.646C148.103 120.836 148.118 121.304 148.076 121.875Z" fill="black"/>
<path d="M117.844 98.9731C117.844 98.9731 113.873 99.219 111.584 98.1799C109.294 97.1408 101.687 94.7427 99.4783 96.4269C97.2698 98.1112 91.9521 99.5997 94.406 106.3C96.86 113 98.006 113.174 98.006 113.174C98.7652 113.788 99.4281 114.528 99.9691 115.369C100.705 116.603 107.576 119.422 109.294 119.422C111.012 119.422 114.038 119.422 118.29 122.595C122.543 125.767 126.388 126.122 126.388 126.122C126.388 126.122 131.787 128.501 133.468 129.03C135.149 129.559 142.83 131.849 144.631 131.145C146.432 130.442 147.576 126.032 147.576 126.032C147.576 126.032 148.393 122.066 147.983 121.45C147.573 120.834 145.284 121.008 144.631 120.128C143.978 119.247 140.05 118.277 140.05 118.277C140.05 118.277 135.807 114.485 135.316 114.485C134.825 114.485 133.52 115.982 132.167 114.837C129.474 112.688 126.644 110.744 123.699 109.02C120.592 107.257 117.844 98.9731 117.844 98.9731Z" fill="#4B4B5B"/>
<path opacity="0.1" d="M109.861 101.53C110.568 101.374 111.299 101.397 111.996 101.595C112.694 101.794 113.34 102.163 113.883 102.675C115.846 104.438 122.452 107.979 122.452 107.979" fill="black"/>
<path opacity="0.1" d="M158.945 101.419C158.945 101.419 150.192 102.847 148.557 104.785L158.945 101.419Z" fill="black"/>
<path d="M169.006 130.614H168.621C167.237 130.561 162.547 130.402 161.644 130.614C160.582 130.878 146.511 130.614 146.511 130.614L149.262 129.998C149.262 129.998 148.241 126.143 148.889 125.823C148.889 125.823 145.208 123.211 147.983 121.447C150.759 119.684 153.75 120.427 153.75 120.427L160.717 117.883L162.054 117.394C162.054 117.394 169.907 117.835 172.032 123.652C174.157 129.469 169.006 130.614 169.006 130.614Z" fill="#E7C7CA"/>
<path opacity="0.1" d="M169.006 130.614H168.621C170.905 128.583 176.073 122.402 160.717 117.896L162.054 117.407C162.054 117.407 169.907 117.849 172.032 123.665C174.157 129.482 169.006 130.614 169.006 130.614Z" fill="black"/>
<path d="M154.569 123.761C154.807 123.761 154.999 123.553 154.999 123.298C154.999 123.042 154.807 122.835 154.569 122.835C154.332 122.835 154.14 123.042 154.14 123.298C154.14 123.553 154.332 123.761 154.569 123.761Z" fill="#4B4B5B"/>
<path d="M152.074 124.525C152.311 124.525 152.503 124.318 152.503 124.062C152.503 123.807 152.311 123.599 152.074 123.599C151.837 123.599 151.644 123.807 151.644 124.062C151.644 124.318 151.837 124.525 152.074 124.525Z" fill="#4B4B5B"/>
<g opacity="0.1">
<path opacity="0.1" d="M139.915 26.2841C140.01 23.3759 139.53 20.4791 138.506 17.7862C135.316 18.2992 131.821 15.6472 128.916 17.2336C126.766 18.4076 126.091 21.3503 125.971 23.9441C125.942 24.6289 125.937 25.3137 125.949 25.9985C125.949 25.7553 125.949 25.5094 125.971 25.2661C126.084 22.6723 126.759 19.7296 128.916 18.5556C131.821 16.9692 135.311 19.6132 138.506 19.1082C139.373 21.3892 139.85 23.8202 139.915 26.2841Z" fill="black"/>
<path opacity="0.1" d="M115.193 25.8002C115.235 25.2241 115.225 24.6449 115.162 24.071C114.901 21.7443 113.721 19.5207 113.508 17.2521C113.233 19.9887 114.85 22.6168 115.162 25.393C115.193 25.5358 115.193 25.6627 115.193 25.8002Z" fill="black"/>
<path opacity="0.1" d="M128.123 49.5275C127.971 51.4894 127.542 53.5861 126.16 54.8869C124.779 56.1878 122.234 56.1164 121.466 54.3343C121.22 53.8055 121.184 53.1895 120.946 52.6607C120.401 51.4497 119.061 50.9791 117.89 50.5058C114.565 49.1653 111.358 46.5398 110.644 42.7827C110.58 42.4423 110.537 42.0979 110.514 41.7515C110.453 42.5386 110.497 43.3309 110.644 44.1047C111.358 47.8512 114.57 50.4873 117.89 51.8278C119.061 52.3011 120.401 52.7717 120.946 53.9827C121.191 54.5115 121.233 55.1222 121.466 55.6563C122.239 57.4384 124.788 57.5071 126.16 56.2089C127.532 54.9107 127.959 52.8114 128.123 50.8495C128.198 49.8169 128.223 48.7809 128.199 47.7455C128.199 48.3456 128.167 48.9379 128.123 49.5275Z" fill="black"/>
<path opacity="0.1" d="M147.078 30.1602C147.078 30.5435 147.078 30.9243 147.078 31.305C147.215 26.3872 148.889 21.4429 148.724 16.6281C148.597 21.0806 147.171 25.6336 147.078 30.1602Z" fill="black"/>
<path opacity="0.1" d="M141.811 50.0537C141.872 49.7399 141.891 49.4186 141.868 49.0992C141.769 48.4149 141.546 47.7582 141.213 47.1664C139.794 44.258 138.177 41.2809 137.986 38.0525C137.986 38.19 137.969 38.3169 137.966 38.465C137.868 42.045 139.662 45.3209 141.213 48.4884C141.476 48.979 141.678 49.5054 141.811 50.0537Z" fill="black"/>
<path opacity="0.1" d="M148.489 46.2278C148.305 49.431 147.459 52.5496 146.013 55.3549C144.717 57.8958 142.427 60.4261 139.775 59.9369C139.537 59.9149 139.314 59.8057 139.142 59.6276C139.092 59.567 139.053 59.4971 139.026 59.4214C138.997 59.6276 138.972 59.8365 138.957 60.048C138.907 60.3629 138.973 60.6867 139.142 60.9496C139.314 61.1277 139.537 61.2369 139.775 61.2589C142.427 61.7481 144.717 59.2178 146.013 56.6769C147.459 53.8716 148.305 50.753 148.489 47.5498C148.518 46.9311 148.521 46.315 148.503 45.699C148.498 45.8761 148.498 46.0506 148.489 46.2278Z" fill="black"/>
</g>
<path opacity="0.1" d="M148.889 125.823C148.889 125.823 155.1 128.631 159.195 122.417" stroke="black" stroke-miterlimit="10"/>
<path opacity="0.1" d="M150.111 130.73C150.111 130.73 155.183 127.177 161.644 130.614" stroke="black" stroke-miterlimit="10"/>
<path opacity="0.1" d="M116.158 129.924C116.158 129.924 118.288 124.747 123.976 128.694" stroke="black" stroke-miterlimit="10"/>
<path opacity="0.1" d="M109.252 53.3639L113.596 49.1335C113.596 49.1335 130.437 47.9437 131.134 54.1122C131.134 54.1122 137.105 46.7989 149.662 48.4276L154.974 52.9859L140.29 59.929L126.02 65.262L115.51 60.1934L109.252 53.3639Z" fill="black"/>
<path d="M109.252 53.6284L113.596 49.398C113.596 49.398 130.437 48.2082 131.134 54.3766C131.134 54.3766 137.105 47.0633 149.662 48.692L154.974 53.2503L140.29 60.1934L126.02 65.5264L115.51 60.4578L109.252 53.6284Z" fill="#D5D6DB"/>
<path opacity="0.1" d="M107.331 54.1572L109.252 78.9236L129.62 80.0261L128.737 55.3655L128.72 54.9504L107.331 54.1572Z" fill="black"/>
<path d="M107.331 53.6284L109.252 78.3948L129.62 79.4974L128.737 54.8367L128.72 54.4216L107.331 53.6284Z" fill="#924F9D"/>
<path opacity="0.1" d="M155.907 53.6284L134.896 57.0233V81.9008L155.428 78.7042L155.907 53.6284Z" fill="black"/>
<path d="M155.907 53.0996L134.896 56.4945V81.3719L155.428 78.1753L155.907 53.0996Z" fill="#924F9D"/>
<path opacity="0.3" d="M150.952 59.1702L139.603 60.5292L139.851 64.6962L150.945 63.3901L150.952 59.1702Z" fill="white"/>
<path d="M110.357 91.6571L111.513 95.0071C111.513 95.0071 113.23 96.5935 115.11 95.8003C116.99 95.0071 118.629 94.6131 119.446 93.8411C120.263 93.069 121.409 89.1903 121.409 89.1903C121.409 89.1903 122.555 84.9599 123.699 83.9023C124.842 82.8446 127.871 68.2735 123.699 69.6987C119.527 71.1238 116.337 84.3438 116.337 84.3438C116.337 84.3438 115.601 85.3115 114.538 85.4014C113.476 85.4913 111.348 85.2243 110.938 86.1946C110.528 87.165 109.13 89.7191 110.357 91.6571Z" fill="#BE6F72"/>
<path opacity="0.1" d="M134.896 57.0206C133.821 57.2818 132.703 57.2681 131.633 56.9807C130.563 56.6933 129.57 56.1402 128.734 55.3655L129.62 80.0235C129.62 80.0235 131.706 82.456 134.896 81.9007V57.0206Z" fill="black"/>
<path d="M134.896 56.4918C133.821 56.753 132.703 56.7394 131.633 56.452C130.563 56.1646 129.57 55.6114 128.734 54.8367L129.62 79.4947C129.62 79.4947 131.706 81.9272 134.896 81.3719V56.4918Z" fill="#924F9D"/>
<path opacity="0.1" d="M134.896 56.4918C133.821 56.753 132.703 56.7394 131.633 56.452C130.563 56.1646 129.57 55.6114 128.734 54.8367L129.62 79.4947C129.62 79.4947 131.706 81.9272 134.896 81.3719V56.4918Z" fill="black"/>
<path opacity="0.1" d="M135.387 53.713C135.387 53.713 143.934 50.8971 146.162 51.2937L135.387 53.713Z" fill="black"/>
<path opacity="0.1" d="M125.826 52.4835C125.826 52.4835 117.542 50.3683 116.158 50.9685L125.826 52.4835Z" fill="black"/>
<path opacity="0.1" d="M140.776 54.0647C140.776 54.0647 146.491 51.8067 148.557 52.8801L140.776 54.0647Z" fill="black"/>
<path opacity="0.1" d="M137.897 110.707C138.783 109.991 139.726 109.36 140.715 108.822C142.187 108.058 144.886 106.075 144.886 106.075" fill="black"/>
<path opacity="0.1" d="M116.158 83.7251C116.158 83.7251 112.573 86.8847 111.495 87.1623C110.418 87.4399 109.753 89.9041 109.753 89.9041" fill="black"/>
<path d="M153.799 91.1865L152.655 94.5444C152.655 94.5444 150.938 96.1308 149.055 95.3376C147.173 94.5444 145.539 94.1504 144.719 93.3784C143.9 92.6063 142.756 88.7276 142.756 88.7276C142.756 88.7276 141.613 84.4972 140.467 83.4396C139.321 82.3819 136.295 67.8108 140.467 69.2359C144.638 70.6611 147.828 83.8811 147.828 83.8811C147.828 83.8811 148.565 84.8488 149.627 84.9387C150.69 85.0286 152.817 84.7616 153.227 85.7319C153.637 86.7023 155.026 89.2564 153.799 91.1865Z" fill="#BE6F72"/>
<path opacity="0.1" d="M151.794 85.0101C151.794 85.0101 154.138 86.6335 154.128 88.5742L151.794 85.0101Z" fill="black"/>
<path d="M131.91 37.9521C137.964 37.9521 142.872 32.6642 142.872 26.1413C142.872 19.6184 137.964 14.3305 131.91 14.3305C125.856 14.3305 120.948 19.6184 120.948 26.1413C120.948 32.6642 125.856 37.9521 131.91 37.9521Z" fill="#BE6F72"/>
<path d="M232.983 163.455C232.983 163.455 234.438 165.504 232.311 168.6C230.183 171.696 228.431 174.309 229.138 176.239C229.138 176.239 232.348 170.491 234.959 170.409C237.57 170.327 235.852 166.911 232.983 163.455Z" fill="#924F9D"/>
<path opacity="0.1" d="M232.983 163.455C233.11 163.653 233.21 163.869 233.28 164.098C235.827 167.323 237.187 170.335 234.735 170.409C232.453 170.48 229.717 174.877 229.062 175.985C229.083 176.075 229.108 176.163 229.138 176.249C229.138 176.249 232.347 170.501 234.959 170.419C237.57 170.337 235.852 166.911 232.983 163.455Z" fill="black"/>
<path d="M235.682 166.067C235.682 166.789 235.606 167.374 235.516 167.374C235.425 167.374 235.346 166.789 235.346 166.067C235.346 165.346 235.44 165.687 235.533 165.687C235.626 165.687 235.682 165.346 235.682 166.067Z" fill="#FFD037"/>
<path d="M236.613 166.929C236.026 167.273 235.513 167.482 235.469 167.395C235.425 167.307 235.864 166.956 236.451 166.601C237.037 166.247 236.806 166.506 236.851 166.601C236.895 166.697 237.201 166.583 236.613 166.929Z" fill="#FFD037"/>
<path d="M225.292 163.455C225.292 163.455 223.837 165.504 225.965 168.6C228.092 171.696 229.845 174.309 229.135 176.239C229.135 176.239 225.928 170.491 223.315 170.409C220.701 170.327 222.431 166.911 225.292 163.455Z" fill="#924F9D"/>
<path opacity="0.1" d="M225.292 163.455C225.166 163.653 225.066 163.869 224.996 164.098C222.448 167.323 221.089 170.335 223.54 170.409C225.82 170.48 228.559 174.877 229.214 175.985C229.193 176.075 229.167 176.163 229.135 176.249C229.135 176.249 225.928 170.501 223.315 170.419C220.701 170.337 222.431 166.911 225.292 163.455Z" fill="black"/>
<path d="M222.588 166.067C222.588 166.789 222.662 167.374 222.755 167.374C222.848 167.374 222.924 166.789 222.924 166.067C222.924 165.346 222.829 165.687 222.738 165.687C222.647 165.687 222.588 165.346 222.588 166.067Z" fill="#FFD037"/>
<path d="M221.661 166.929C222.247 167.273 222.76 167.482 222.804 167.395C222.848 167.307 222.409 166.956 221.822 166.601C221.236 166.247 221.467 166.506 221.422 166.601C221.378 166.697 221.072 166.583 221.661 166.929Z" fill="#FFD037"/>
<path opacity="0.1" d="M229.138 191.923C237.541 191.923 244.352 190.797 244.352 189.409C244.352 188.02 237.541 186.894 229.138 186.894C220.735 186.894 213.923 188.02 213.923 189.409C213.923 190.797 220.735 191.923 229.138 191.923Z" fill="#924F9D"/>
<path d="M236.968 173.476L236.895 174.116L236.792 175.02L236.75 175.398L236.647 176.302L236.603 176.68L236.502 177.582L235.336 187.867C235.233 188.785 233.842 189.501 232.161 189.501H226.112C224.431 189.501 223.042 188.785 222.937 187.867L221.771 177.582L221.668 176.68L221.626 176.302L221.523 175.398L221.479 175.02L221.378 174.116L221.305 173.476C221.248 172.947 221.999 172.519 222.951 172.519H235.324C236.274 172.519 237.027 172.955 236.968 173.476Z" fill="#65617D"/>
<path d="M236.895 174.116L236.794 175.02H221.481L221.378 174.116H236.895Z" fill="#9D9CB5"/>
<path d="M236.75 175.398L236.649 176.302H221.626L221.523 175.398H236.75Z" fill="#9D9CB5"/>
<path d="M236.605 176.68L236.502 177.585H221.771L221.67 176.68H236.605Z" fill="#9D9CB5"/>
</g>
<defs>
<linearGradient id="paint0_linear" x1="134.143" y1="132.708" x2="134.143" y2="2.08376e-05" gradientUnits="userSpaceOnUse">
<stop stop-color="#808080" stop-opacity="0.25"/>
<stop offset="0.54" stop-color="#808080" stop-opacity="0.12"/>
<stop offset="1" stop-color="#808080" stop-opacity="0.1"/>
</linearGradient>
<clipPath id="clip0">
<rect width="251" height="215" fill="white"/>
</clipPath>
</defs>
</svg>
