<svg width="225" height="201" viewBox="0 0 225 201" fill="none" xmlns="http://www.w3.org/2000/svg">
<g clip-path="url(#clip0)">
<path d="M115.178 198.868C114.084 198.868 112.98 198.852 111.895 198.819L111.92 198.064C113.477 198.11 115.066 198.123 116.631 198.102L116.642 198.859C116.155 198.865 115.667 198.868 115.178 198.868ZM121.386 198.693L121.339 197.938C122.899 197.85 124.479 197.726 126.034 197.57L126.117 198.321C124.549 198.479 122.958 198.604 121.386 198.693V198.693ZM107.155 198.575C105.583 198.459 103.993 198.308 102.431 198.124L102.528 197.374C104.078 197.556 105.655 197.707 107.215 197.821L107.155 198.575ZM130.825 197.744L130.707 196.996C132.256 196.771 133.818 196.509 135.347 196.218L135.5 196.959C133.96 197.252 132.386 197.516 130.825 197.744ZM97.7346 197.467C96.181 197.214 94.6127 196.924 93.0735 196.604L93.2408 195.865C94.7682 196.183 96.3244 196.471 97.8663 196.721L97.7346 197.467ZM140.134 195.969L139.945 195.235C141.466 194.874 142.995 194.476 144.491 194.05L144.715 194.775C143.208 195.204 141.667 195.606 140.134 195.969ZM88.4591 195.536C86.9351 195.147 85.4014 194.719 83.9007 194.264L84.1383 193.543C85.6276 193.995 87.1495 194.419 88.6616 194.805L88.4591 195.536ZM149.234 193.38L148.975 192.666C150.451 192.174 151.936 191.642 153.388 191.084L153.681 191.787C152.218 192.348 150.722 192.884 149.234 193.38L149.234 193.38ZM79.3966 192.788C77.9165 192.266 76.4271 191.703 74.9703 191.115L75.2764 190.418C76.722 191.002 78.1999 191.56 79.6688 192.078L79.3966 192.788ZM158.037 190.002L157.71 189.314C159.128 188.696 160.553 188.037 161.945 187.354L162.304 188.028C160.901 188.715 159.465 189.38 158.037 190.002ZM70.6304 189.248C69.2077 188.598 67.7795 187.907 66.3862 187.193L66.7577 186.526C68.1407 187.234 69.5576 187.921 70.9696 188.566L70.6304 189.248ZM166.473 185.867L166.083 185.21C167.442 184.466 168.799 183.684 170.115 182.886L170.537 183.524C169.21 184.329 167.843 185.118 166.473 185.867ZM62.2462 184.952C60.8929 184.18 59.5377 183.366 58.2185 182.533L58.6524 181.902C59.9614 182.729 61.3062 183.537 62.6493 184.303L62.2462 184.952ZM174.485 181.006L174.034 180.386C175.314 179.528 176.591 178.63 177.831 177.717L178.311 178.316C177.063 179.237 175.775 180.142 174.485 181.006ZM54.3116 179.941C53.0389 179.054 51.7677 178.126 50.5328 177.18L51.0248 176.589C52.2503 177.528 53.5119 178.449 54.7747 179.329L54.3116 179.941ZM182.006 175.462L181.498 174.884C182.691 173.918 183.878 172.912 185.028 171.893L185.563 172.449C184.405 173.475 183.208 174.489 182.006 175.462ZM46.89 174.258C45.7048 173.262 44.5273 172.227 43.3904 171.18L43.9363 170.635C45.0647 171.674 46.2332 172.701 47.4094 173.689L46.89 174.258ZM188.973 169.282L188.412 168.751C189.512 167.682 190.6 166.576 191.645 165.463L192.231 165.969C191.178 167.091 190.082 168.205 188.973 169.282V169.282ZM40.0413 167.954C38.9538 166.858 37.8799 165.724 36.8493 164.585L37.4448 164.09C38.4676 165.22 39.5333 166.345 40.6126 167.433L40.0413 167.954ZM195.329 162.517L194.719 162.037C195.713 160.878 196.691 159.681 197.628 158.48L198.259 158.933C197.316 160.143 196.33 161.349 195.329 162.517ZM33.8211 161.082C32.8445 159.899 31.883 158.677 30.963 157.451L31.6029 157.009C32.5159 158.226 33.4701 159.438 34.4394 160.613L33.8211 161.082ZM201.017 155.223L200.365 154.798C201.244 153.557 202.105 152.279 202.924 150.999L203.596 151.395C202.771 152.684 201.903 153.972 201.017 155.223ZM28.2815 153.7C27.4224 152.436 26.5816 151.137 25.7821 149.836L26.4612 149.452C27.2547 150.743 28.0892 152.033 28.9418 153.286L28.2815 153.7ZM205.99 147.457L205.3 147.092C206.057 145.778 206.793 144.429 207.487 143.082L208.194 143.417C207.494 144.774 206.753 146.134 205.99 147.457ZM23.47 145.867C22.7347 144.534 22.0217 143.167 21.3508 141.803L22.0638 141.48C22.7297 142.834 23.4371 144.191 24.1669 145.514L23.47 145.867ZM210.201 139.283L209.479 138.979C210.107 137.603 210.71 136.194 211.272 134.791L212.008 135.062C211.442 136.476 210.834 137.896 210.201 139.283V139.283ZM19.4287 137.651C18.8242 136.26 18.2454 134.837 17.7083 133.42L18.4494 133.162C18.9823 134.567 19.5567 135.98 20.1563 137.36L19.4287 137.651ZM213.61 130.764L212.862 130.526C213.354 129.105 213.818 127.651 214.242 126.207L215.001 126.411C214.574 127.867 214.106 129.332 213.61 130.764L213.61 130.764ZM16.1895 129.107C15.7204 127.666 15.2796 126.194 14.8794 124.731L15.642 124.539C16.0391 125.991 16.4767 127.452 16.9421 128.882L16.1895 129.107ZM216.18 122.001L215.412 121.83C215.765 120.373 216.088 118.884 216.372 117.407L217.147 117.544C216.861 119.033 216.536 120.532 216.18 122.001L216.18 122.001ZM13.7813 120.302C13.4525 118.825 13.1549 117.321 12.897 115.829L13.6747 115.705C13.9309 117.186 14.2262 118.679 14.5525 120.144L13.7813 120.302ZM217.899 113.049L217.117 112.947C217.329 111.466 217.508 109.956 217.649 108.458L218.435 108.526C218.292 110.035 218.112 111.557 217.899 113.049L217.899 113.049ZM12.2275 111.323C12.0415 109.826 11.8888 108.302 11.7735 106.792L12.5601 106.736C12.6742 108.235 12.8259 109.748 13.0105 111.233L12.2275 111.323ZM218.756 103.985L217.968 103.951C218.038 102.452 218.074 100.933 218.074 99.4341H218.863C218.863 100.944 218.827 102.475 218.756 103.985L218.756 103.985ZM11.5347 102.245C11.5077 101.318 11.4941 100.372 11.4939 99.4341C11.4939 98.8522 11.4991 98.2714 11.5095 97.6917L12.2979 97.705C12.2875 98.2803 12.2823 98.8566 12.2823 99.4341C12.2825 100.365 12.2962 101.304 12.3228 102.224L11.5347 102.245ZM218.068 98.3792C218.052 96.88 218 95.3605 217.913 93.8626L218.7 93.8205C218.787 95.3299 218.84 96.8608 218.857 98.3711L218.068 98.3792ZM12.4851 93.1908L11.6982 93.1436C11.7965 91.6328 11.9324 90.1068 12.1016 88.608L12.8855 88.6894C12.7174 90.1769 12.5829 91.6913 12.4851 93.1908ZM217.544 89.3591C217.387 87.8684 217.191 86.3602 216.962 84.8759L217.742 84.7655C217.972 86.261 218.17 87.7807 218.329 89.2827L217.544 89.3591ZM13.4994 84.2104L12.7201 84.0949C12.9617 82.599 13.2424 81.0913 13.5544 79.6131L14.3271 79.763C14.0176 81.2299 13.739 82.7262 13.4994 84.2104ZM216.166 80.4238C215.866 78.9487 215.527 77.4639 215.158 76.0107L215.924 75.832C216.295 77.2963 216.637 78.7925 216.94 80.2786L216.166 80.4238ZM15.367 75.357L14.6022 75.1731C14.9851 73.7087 15.4091 72.232 15.8627 70.7839L16.6177 71.0014C16.1678 72.4384 15.747 73.9038 15.367 75.357ZM213.938 71.6468C213.498 70.207 213.018 68.7588 212.51 67.3417L213.256 67.0958C213.768 68.5238 214.252 69.9835 214.695 71.4341L213.938 71.6468ZM18.0813 66.6939L17.3374 66.4432C17.8614 65.0138 18.4272 63.5775 19.0189 62.1744L19.75 62.4579C19.1627 63.8502 18.6012 65.2756 18.0812 66.6939H18.0813ZM210.876 63.1042C210.301 61.7127 209.685 60.3161 209.045 58.9532L209.764 58.6427C210.409 60.0161 211.03 61.4234 211.609 62.8255L210.876 63.1042ZM21.6201 58.3017L20.9036 57.986C21.5622 56.6106 22.263 55.2315 22.9869 53.8868L23.6875 54.2334C22.9691 55.568 22.2736 56.9367 21.6201 58.3017ZM207.017 54.8855C206.312 53.5506 205.564 52.2129 204.795 50.9102L205.481 50.5376C206.256 51.8506 207.009 53.1984 207.72 54.5436L207.017 54.8855ZM25.9477 50.2618L25.2643 49.8845C26.0508 48.5747 26.8803 47.2636 27.7298 45.988L28.3943 46.3949C27.5514 47.6609 26.7281 48.962 25.9477 50.2618H25.9477ZM202.385 47.0349C201.552 45.7629 200.68 44.4958 199.792 43.2685L200.44 42.8376C201.334 44.0743 202.213 45.3511 203.053 46.6328L202.385 47.0349ZM31.0227 42.6403L30.3782 42.2046C31.2872 40.9683 32.2375 39.736 33.2035 38.542L33.8264 39.0054C32.868 40.1905 31.9246 41.4134 31.0227 42.6403ZM197.022 39.6186C196.072 38.4251 195.082 37.2387 194.08 36.0923L194.684 35.6066C195.694 36.7618 196.691 37.9572 197.648 39.1597L197.022 39.6186ZM36.7996 35.498L36.1994 35.0077C37.2194 33.8587 38.2826 32.715 39.3592 31.6085L39.9356 32.1243C38.8672 33.2225 37.8121 34.3577 36.7996 35.498ZM190.974 32.6971C189.915 31.5915 188.816 30.4957 187.709 29.4405L188.265 28.904C189.38 29.9675 190.487 31.0715 191.554 32.1854L190.974 32.6971ZM43.2275 28.8922L42.6762 28.3517C43.8036 27.2939 44.9704 26.2481 46.1436 25.2434L46.6688 25.8076C45.5044 26.8045 44.3465 27.8423 43.2275 28.8922H43.2275ZM184.293 26.3289C183.132 25.3193 181.933 24.3235 180.731 23.3693L181.233 22.7867C182.445 23.7481 183.653 24.7514 184.822 25.7688L184.293 26.3289ZM50.2522 22.8764L49.7544 22.2901C50.9738 21.3377 52.2341 20.3984 53.5004 19.4982L53.9701 20.1056C52.7133 20.9991 51.4624 21.9312 50.2522 22.8764ZM177.032 20.5675C175.779 19.6631 174.491 18.7757 173.202 17.93L173.647 17.306C174.946 18.158 176.244 19.052 177.506 19.9635L177.032 20.5675ZM57.8145 17.5012L57.3744 16.8739C58.6796 16.0317 60.0232 15.207 61.3682 14.4223L61.7778 15.0684C60.4432 15.8471 59.1098 16.6656 57.8145 17.5012ZM169.249 15.4629C167.917 14.6721 166.548 13.9011 165.182 13.1712L165.566 12.5107C166.943 13.2462 168.321 14.0232 169.664 14.8198L169.249 15.4629ZM65.8521 12.8125L65.4736 12.149C66.8544 11.4244 68.2702 10.7215 69.6816 10.0593L70.0281 10.7386C68.6275 11.3956 67.2225 12.0933 65.8521 12.8125L65.8521 12.8125ZM161.009 11.0606C159.606 10.3903 158.169 9.74265 156.738 9.13585L157.056 8.44431C158.499 9.05574 159.947 9.70832 161.361 10.3838L161.009 11.0606ZM74.2974 8.85101L73.984 8.15725C75.427 7.55746 76.903 6.98223 78.371 6.44741L78.6509 7.15446C77.1941 7.68502 75.7293 8.25582 74.2973 8.851L74.2974 8.85101ZM152.377 7.40129C150.917 6.85836 149.423 6.34034 147.935 5.86185L148.186 5.14484C149.685 5.62721 151.191 6.1491 152.662 6.69646L152.377 7.40129ZM83.0922 5.64825L82.8466 4.92976C84.345 4.45864 85.8738 4.01503 87.3903 3.61166L87.6011 4.34012C86.0961 4.74052 84.5791 5.18061 83.0922 5.64824L83.0922 5.64825ZM143.436 4.52399C141.932 4.11287 140.398 3.72999 138.877 3.38607L139.058 2.65022C140.591 2.99673 142.136 3.38256 143.652 3.79664L143.436 4.52399ZM92.1684 3.23266L91.9928 2.49552C93.5289 2.15897 95.0938 1.85235 96.6436 1.5843L96.7837 2.32827C95.2454 2.59446 93.6927 2.89869 92.1684 3.23265V3.23266ZM134.268 2.45121C132.733 2.17486 131.169 1.92897 129.62 1.72035L129.729 0.971588C131.29 1.18185 132.866 1.4296 134.414 1.70798L134.268 2.45121ZM101.438 1.62842L101.333 0.878911C102.894 0.679164 104.482 0.511173 106.051 0.38011L106.12 1.13331C104.562 1.26363 102.987 1.43014 101.438 1.62841L101.438 1.62842ZM124.941 1.19459C123.388 1.05429 121.807 0.946108 120.242 0.873556L120.28 0.118152C121.857 0.191426 123.45 0.300367 125.015 0.441763L124.941 1.19459ZM110.821 0.843281L110.788 0.0878767C112.237 0.029906 113.714 0.000369732 115.178 0L115.535 0.000538523L115.533 0.756697L115.178 0.756138C113.725 0.756507 112.259 0.785858 110.821 0.843271V0.843281Z" fill="#E6E6E6"/>
<path d="M115.426 198.352V157.004C115.427 156.425 115.667 155.87 116.094 155.46C116.521 155.05 117.1 154.82 117.704 154.819H122.877C123.481 154.82 124.06 155.05 124.488 155.46C124.915 155.87 125.155 156.425 125.156 157.004V198.352C125.155 198.931 124.915 199.486 124.488 199.896C124.06 200.306 123.481 200.536 122.877 200.537H117.704C117.1 200.536 116.521 200.306 116.094 199.896C115.667 199.486 115.427 198.931 115.426 198.352Z" fill="#43434B"/>
<path d="M105.195 198.352V157.004C105.195 156.425 105.436 155.87 105.863 155.46C106.29 155.05 106.869 154.82 107.473 154.819H112.646C113.25 154.82 113.829 155.05 114.256 155.46C114.683 155.87 114.923 156.425 114.924 157.004V198.352C114.923 198.931 114.683 199.486 114.256 199.896C113.829 200.306 113.25 200.536 112.646 200.537H107.473C106.869 200.536 106.29 200.306 105.863 199.896C105.436 199.486 105.195 198.931 105.195 198.352Z" fill="#43434B"/>
<path d="M125.648 143.354H104.703C103.541 143.354 102.6 144.256 102.6 145.37V168.06C102.6 169.174 103.541 170.077 104.703 170.077H125.648C126.809 170.077 127.751 169.174 127.751 168.06V145.37C127.751 144.256 126.809 143.354 125.648 143.354Z" fill="#43434B"/>
<path d="M79.9634 78.3918C79.9634 78.3918 69.3931 83.101 60.4483 86.224C54.8976 74.2074 46.9009 74.6571 46.9009 74.6571L42.0528 77.8584L42.9271 82.6601L42.6887 90.5107L41.417 94.6266L43.2418 94.9428L44.2726 95.122L44.428 94.9873C44.1708 95.9647 44.0667 96.9734 44.1192 97.9802L89.9775 91.1206C89.9775 91.1206 88.388 84.0322 79.9634 78.3918Z" fill="#E6E6E6"/>
<path d="M66.4218 140.198L69.4965 144.187C70.1867 145.083 71.5035 145.273 72.4375 144.611L107.111 120.036C108.045 119.374 108.242 118.111 107.552 117.215L104.477 113.225C103.787 112.33 102.47 112.14 101.536 112.802L66.8631 137.377C65.9291 138.039 65.7316 139.302 66.4218 140.198Z" fill="#F7E6F5"/>
<path d="M125.504 111.87L120.934 114.196C119.908 114.718 119.518 115.939 120.062 116.922L140.273 153.446C140.818 154.43 142.091 154.804 143.117 154.282L147.686 151.956C148.712 151.434 149.102 150.213 148.558 149.229L128.347 112.706C127.803 111.722 126.53 111.348 125.504 111.87Z" fill="#F7E6F5"/>
<path d="M138.314 128.08L130.851 132.824C129.71 133.405 128.345 133.077 127.8 132.094L119.558 117.2C119.014 116.216 119.497 114.948 120.637 114.367L125.717 111.782C126.857 111.202 128.223 111.529 128.768 112.513L139.393 125.247C139.937 126.231 139.454 127.499 138.314 128.08Z" fill="#794BB5"/>
<path d="M87.4578 123.717L92.3084 129.894C92.6901 130.284 93.2177 130.513 93.7752 130.53C94.3326 130.547 94.8742 130.35 95.2809 129.984L108.1 118.445C108.507 118.079 108.745 117.573 108.763 117.038C108.781 116.504 108.576 115.984 108.195 115.594L104.654 111.977C104.273 111.587 103.745 111.359 103.188 111.342C102.63 111.325 102.088 111.521 101.682 111.887L87.5519 120.866C87.1453 121.232 86.9069 121.738 86.8893 122.273C86.8716 122.807 87.0761 123.327 87.4578 123.717Z" fill="#794BB5"/>
<path d="M126.927 111.276H103.423C102.261 111.276 101.32 112.179 101.32 113.293V161.182C101.32 162.295 102.261 163.198 103.423 163.198H126.927C128.089 163.198 129.03 162.295 129.03 161.182V113.293C129.03 112.179 128.089 111.276 126.927 111.276Z" fill="#794BB5"/>
<path d="M115.038 108.151C125.397 108.151 133.796 100.097 133.796 90.1617C133.796 80.2267 125.397 72.1729 115.038 72.1729C104.678 72.1729 96.28 80.2267 96.28 90.1617C96.28 100.097 104.678 108.151 115.038 108.151Z" fill="#F7E6F5"/>
<path d="M117.224 96.1679C116.065 96.1367 114.623 96.0979 113.513 95.32C113.182 95.0788 112.91 94.771 112.716 94.4184C112.523 94.0658 112.412 93.6768 112.391 93.2787C112.371 92.9958 112.419 92.7123 112.533 92.4504C112.646 92.1885 112.82 91.9552 113.043 91.7687C113.623 91.2987 114.47 91.1878 115.384 91.4458L114.438 84.8153L115.132 84.724L116.244 92.5188L115.664 92.2637C114.992 91.9677 114.069 91.8173 113.496 92.2821C113.355 92.4036 113.245 92.5546 113.175 92.7233C113.105 92.892 113.077 93.074 113.092 93.255C113.109 93.5513 113.192 93.8406 113.336 94.1033C113.48 94.3659 113.681 94.5958 113.926 94.7771C114.79 95.3824 115.94 95.4608 117.244 95.4956L117.224 96.1679Z" fill="#43434B"/>
<path d="M111.003 85.3871H107.228V86.0593H111.003V85.3871Z" fill="#43434B"/>
<path d="M122.92 85.3871H119.145V86.0593H122.92V85.3871Z" fill="#43434B"/>
<path d="M102.646 76.1042C99.6058 75.7717 97.2512 72.9782 96.9926 70.1438C96.685 66.7718 98.7326 63.5691 101.542 61.6769C104.48 59.6981 108.14 58.8718 111.682 58.6898C118.59 58.3601 125.38 60.5063 130.73 64.711C133.384 66.8247 135.862 69.5171 136.801 72.7693C137.617 75.5936 136.953 78.7933 134.585 80.7714C133.999 81.2561 133.314 81.6191 132.575 81.8375C131.835 82.0559 131.056 82.1249 130.288 82.0401C128.45 81.8571 126.754 80.9303 125.286 79.9068C122.431 77.9158 120.087 75.1422 116.608 74.1018C114.057 73.3389 110.747 74.0104 109.188 76.2225C108.834 76.7289 108.605 77.3057 108.518 77.9094C108.486 78.0382 108.506 78.1739 108.574 78.289C108.642 78.4042 108.753 78.4901 108.885 78.5296C109.019 78.5643 109.163 78.5468 109.284 78.4809C109.405 78.415 109.494 78.306 109.532 78.1775C109.941 75.3912 113.513 74.3516 116.02 74.9879C119.675 75.9156 122.129 79.0435 125.128 81.0308C126.704 82.0757 128.498 82.9111 130.431 83.061C132.098 83.1864 133.753 82.699 135.059 81.6976C137.621 79.7576 138.601 76.4208 138.034 73.4165C137.378 69.9375 134.936 66.9558 132.257 64.6474C126.826 60.0169 119.775 57.519 112.51 57.6512C108.804 57.7329 104.937 58.4665 101.744 60.345C98.6474 62.1671 96.2538 65.2154 95.941 68.7587C95.6656 71.8776 97.4104 75.1397 100.406 76.5061C101.112 76.8269 101.869 77.0319 102.646 77.1126C103.317 77.186 103.312 76.177 102.646 76.1042H102.646Z" fill="#43434B"/>
<path d="M44.2384 94.5123L46.4638 93.8263C46.7022 93.3881 46.2659 93.6692 46.4741 93.2432C52.1043 81.7242 46.9009 74.6571 46.9009 74.6571L42.8756 77.3151C42.8657 77.2932 42.8576 77.2706 42.8476 77.2486C42.8476 77.2486 42.1323 75.7242 41.0196 76.8675C41.0196 76.8675 44.5166 85.023 40.6222 95.1601L45.1524 97.1419L46.9009 95.1601L46.9406 94.9696L43.8114 94.6968L44.2384 94.5123Z" fill="#794BB5"/>
<path d="M107.701 137.309C89.8185 133.498 73.1681 141.387 73.1681 141.387L73.1228 141.348L66.492 135.671L40.5825 95.1221L46.9009 95.1602C64.4653 85.0993 89.1827 86.4712 89.1827 86.4712C99.8326 98.0565 107.701 137.309 107.701 137.309Z" fill="#842A60"/>
<path opacity="0.1" d="M73.1228 141.348L66.492 135.671L40.5825 95.1221L46.9009 95.1602C46.9009 95.1602 72.084 127.057 73.1228 141.348Z" fill="black"/>
<path d="M76.0329 109.71C81.4463 108.118 84.9791 104.152 83.9236 100.852C82.8682 97.5516 77.6242 96.1673 72.2107 97.7596C66.7973 99.352 63.2645 103.318 64.32 106.618C65.3754 109.918 70.6195 111.302 76.0329 109.71Z" fill="#F7E6F5"/>
<path d="M20.6828 75.4616C19.255 80.5234 14.3644 83.6582 14.3644 83.6582C14.3644 83.6582 11.7887 78.5864 13.2165 73.5247C14.6444 68.4629 19.535 65.3281 19.535 65.3281C19.535 65.3281 22.1106 70.3999 20.6828 75.4616Z" fill="#794BB5"/>
<path d="M7.6936 75.4616C9.12143 80.5234 14.012 83.6582 14.012 83.6582C14.012 83.6582 16.5877 78.5864 15.1599 73.5247C13.7321 68.4629 8.84144 65.3281 8.84144 65.3281C8.84144 65.3281 6.26578 70.3999 7.6936 75.4616Z" fill="#794BB5"/>
<path d="M9.7917 74.3739C13.7097 78.0315 14.1882 83.6541 14.1882 83.6541C14.1882 83.6541 8.31449 83.3466 4.39652 79.6889C0.478548 76.0313 0 70.4086 0 70.4086C0 70.4086 5.87373 70.7162 9.7917 74.3739Z" fill="#842A60"/>
<path d="M18.5847 74.3739C14.6668 78.0315 14.1882 83.6541 14.1882 83.6541C14.1882 83.6541 20.0619 83.3466 23.9799 79.6889C27.8979 76.0313 28.3764 70.4086 28.3764 70.4086C28.3764 70.4086 22.5027 70.7162 18.5847 74.3739Z" fill="#842A60"/>
<path d="M217.306 132.602C215.879 137.664 210.988 140.799 210.988 140.799C210.988 140.799 208.412 135.727 209.84 130.665C211.268 125.603 216.159 122.469 216.159 122.469C216.159 122.469 218.734 127.54 217.306 132.602Z" fill="#794BB5"/>
<path d="M204.317 132.602C205.745 137.664 210.636 140.799 210.636 140.799C210.636 140.799 213.211 135.727 211.783 130.665C210.356 125.603 205.465 122.469 205.465 122.469C205.465 122.469 202.889 127.54 204.317 132.602Z" fill="#794BB5"/>
<path d="M206.415 131.514C210.333 135.172 210.812 140.795 210.812 140.795C210.812 140.795 204.938 140.487 201.02 136.829C197.102 133.172 196.624 127.549 196.624 127.549C196.624 127.549 202.497 127.857 206.415 131.514Z" fill="#842A60"/>
<path d="M215.208 131.514C211.29 135.172 210.812 140.795 210.812 140.795C210.812 140.795 216.686 140.487 220.603 136.829C224.521 133.172 225 127.549 225 127.549C225 127.549 219.126 127.857 215.208 131.514Z" fill="#842A60"/>
<path d="M156.304 200.328H74.9913V201H156.304V200.328Z" fill="#842A60"/>
</g>
<defs>
<clipPath id="clip0">
<rect width="225" height="201" fill="white"/>
</clipPath>
</defs>
</svg>
